<?xml version="1.0" encoding="utf-8"?>
<!-- Generator: Adobe Illustrator 16.comp_thinking.memory, SVG Export Plug-In . SVG Version: python.00 Build comp_thinking)  -->
<!DOCTYPE svg PUBLIC "-//W3C//DTD SVG 1.1//EN" "http://www.w3.org/Graphics/SVG/1.1/DTD/svg11.dtd">
<svg version="1.1" id="Ebene_1" xmlns="http://www.w3.org/2000/svg" xmlns:xlink="http://www.w3.org/1999/xlink" x="0px" y="0px"
	 width="595.28px" height="841.89px" viewBox="0 0 595.28 841.89" enable-background="new 0 0 595.28 841.89" xml:space="preserve">
<g>
	<g>
		<defs>
			<rect id="SVGID_1_" x="53" y="341.89" width="488.019" height="159.919"/>
		</defs>
		<clipPath id="SVGID_2_">
			<use xlink:href="#SVGID_1_"  overflow="visible"/>
		</clipPath>
		<polygon clip-path="url(#SVGID_2_)" fill="#FFFFFF" points="541.019,501.809 52.999,501.809 52.999,341.89 541.019,341.89 
			541.019,501.809 		"/>
	</g>
	<path fill="#003865" d="M490.466,461.48c-0.554,0.233-1.108,0.352-1.671,0.352c-0.885,0-1.682-0.155-2.387-0.462
		c-0.709-0.309-1.308-0.732-1.789-1.272c-0.489-0.54-0.859-1.175-1.12-1.903c-0.261-0.729-0.39-1.515-0.39-2.357
		c0-0.863,0.129-1.665,0.39-2.405s0.631-1.385,1.12-1.937c0.481-0.551,1.08-0.979,1.789-1.294c0.705-0.314,1.502-0.471,2.387-0.471
		c0.596,0,1.168,0.088,1.727,0.268c0.555,0.178,1.058,0.439,1.506,0.785c0.447,0.346,0.818,0.773,1.108,1.28
		c0.294,0.508,0.471,1.09,0.537,1.75h-2.432c-0.15-0.65-0.444-1.135-0.874-1.458c-0.434-0.324-0.955-0.487-1.572-0.487
		c-0.573,0-1.058,0.11-1.458,0.332c-0.399,0.222-0.724,0.519-0.97,0.892c-0.25,0.371-0.433,0.797-0.543,1.271
		c-0.114,0.477-0.169,0.968-0.169,1.475c0,0.484,0.055,0.959,0.169,1.418c0.11,0.458,0.293,0.873,0.543,1.237
		c0.246,0.367,0.57,0.663,0.97,0.884c0.4,0.224,0.885,0.333,1.458,0.333c0.841,0,1.495-0.214,1.954-0.642
		c0.459-0.424,0.724-1.043,0.801-1.853h-2.56v-1.897h4.859v6.255h-1.62l-0.258-1.313C491.518,460.841,491.013,461.25,490.466,461.48
		 M477.824,450.006c0.518,0,0.984,0.082,1.403,0.25c0.415,0.167,0.771,0.396,1.068,0.688c0.297,0.292,0.522,0.63,0.68,1.015
		c0.157,0.384,0.234,0.795,0.234,1.237c0,0.682-0.143,1.268-0.429,1.767c-0.287,0.496-0.753,0.874-1.4,1.133v0.033
		c0.313,0.087,0.57,0.219,0.775,0.396c0.206,0.178,0.375,0.388,0.504,0.632c0.128,0.242,0.224,0.511,0.283,0.803
		c0.058,0.291,0.099,0.581,0.121,0.875c0.011,0.183,0.021,0.397,0.032,0.647c0.012,0.248,0.029,0.503,0.056,0.76
		c0.028,0.262,0.072,0.506,0.132,0.738c0.059,0.232,0.146,0.428,0.264,0.592h-2.541c-0.14-0.368-0.228-0.807-0.257-1.313
		c-0.033-0.507-0.081-0.992-0.146-1.458c-0.09-0.605-0.272-1.047-0.552-1.33c-0.282-0.279-0.741-0.419-1.378-0.419h-2.541v4.52
		h-2.545v-11.565H477.824L477.824,450.006z M476.917,455.238c0.584,0,1.021-0.131,1.312-0.39c0.294-0.259,0.44-0.679,0.44-1.261
		c0-0.564-0.146-0.973-0.44-1.226c-0.29-0.254-0.728-0.38-1.312-0.38h-2.784v3.256H476.917L476.917,455.238z M468.937,450.006v2.136
		h-6.108v2.479h5.604v1.98h-5.604v2.831h6.236v2.14h-8.778v-11.565H468.937L468.937,450.006z M453.745,459.594
		c0.246,0,0.484-0.024,0.712-0.072c0.229-0.049,0.426-0.13,0.599-0.242c0.173-0.116,0.313-0.268,0.411-0.461
		c0.107-0.196,0.154-0.444,0.154-0.748c0-0.595-0.165-1.015-0.499-1.27c-0.338-0.254-0.779-0.38-1.33-0.38h-2.769v3.173H453.745
		L453.745,459.594z M453.921,450.006c0.551,0,1.054,0.047,1.509,0.143c0.452,0.097,0.842,0.259,1.165,0.479
		c0.323,0.223,0.576,0.516,0.753,0.884c0.181,0.367,0.269,0.82,0.269,1.358c0,0.584-0.132,1.07-0.397,1.458
		c-0.264,0.39-0.656,0.709-1.175,0.957c0.712,0.205,1.245,0.565,1.594,1.078c0.353,0.513,0.529,1.131,0.529,1.856
		c0,0.581-0.114,1.086-0.338,1.512c-0.228,0.426-0.533,0.776-0.918,1.045c-0.382,0.271-0.82,0.471-1.313,0.599
		c-0.491,0.131-0.994,0.196-1.513,0.196h-5.604v-11.565H453.921L453.921,450.006z M453.598,454.685c0.455,0,0.826-0.106,1.12-0.323
		c0.29-0.217,0.434-0.567,0.434-1.052c0-0.27-0.048-0.491-0.144-0.665c-0.095-0.173-0.228-0.307-0.389-0.406
		c-0.162-0.097-0.349-0.164-0.559-0.2c-0.214-0.041-0.43-0.057-0.657-0.057h-2.38v2.703H453.598L453.598,454.685z M438.322,450.006
		l4.826,7.757h0.032v-7.757h2.381v11.565h-2.541l-4.813-7.745h-0.033v7.745h-2.38v-11.565H438.322L438.322,450.006z
		 M429.786,450.006c0.518,0,0.988,0.082,1.403,0.25c0.415,0.167,0.771,0.396,1.068,0.688s0.521,0.63,0.68,1.015
		c0.154,0.384,0.234,0.795,0.234,1.237c0,0.682-0.143,1.268-0.429,1.767c-0.287,0.496-0.753,0.874-1.399,1.133v0.033
		c0.313,0.087,0.569,0.219,0.778,0.396c0.202,0.178,0.371,0.388,0.499,0.632c0.133,0.242,0.225,0.511,0.283,0.803
		c0.059,0.291,0.1,0.581,0.122,0.875c0.011,0.183,0.021,0.397,0.033,0.647c0.011,0.248,0.028,0.503,0.058,0.76
		c0.026,0.262,0.07,0.506,0.129,0.738s0.147,0.428,0.268,0.592h-2.545c-0.14-0.368-0.228-0.807-0.261-1.313
		c-0.033-0.507-0.077-0.992-0.143-1.458c-0.088-0.605-0.272-1.047-0.552-1.33c-0.278-0.279-0.737-0.419-1.378-0.419h-2.541v4.52
		h-2.546v-11.565H429.786L429.786,450.006z M428.883,455.238c0.58,0,1.018-0.131,1.308-0.39c0.294-0.259,0.44-0.679,0.44-1.261
		c0-0.564-0.146-0.973-0.44-1.226c-0.29-0.254-0.728-0.38-1.308-0.38h-2.788v3.256H428.883L428.883,455.238z M419.627,460.687
		c-0.878,0.762-2.086,1.145-3.629,1.145c-1.564,0-2.78-0.381-3.636-1.136c-0.86-0.757-1.289-1.923-1.289-3.499v-7.19h2.541v7.19
		c0,0.314,0.03,0.621,0.085,0.924c0.051,0.302,0.165,0.567,0.338,0.802c0.172,0.232,0.415,0.422,0.719,0.566
		c0.31,0.146,0.725,0.22,1.242,0.22c0.907,0,1.532-0.202,1.877-0.608s0.521-1.038,0.521-1.903v-7.19h2.542v7.19
		C420.938,458.762,420.501,459.926,419.627,460.687 M418.768,448.709h-2.186v-1.896h2.186V448.709L418.768,448.709z
		 M415.429,448.709h-2.186v-1.896h2.186V448.709L415.429,448.709z M401.049,450.006l4.826,7.757h0.034v-7.757h2.38v11.565h-2.542
		l-4.812-7.745h-0.033v7.745h-2.38v-11.565H401.049L401.049,450.006z M395.599,458.138h-4.873v-1.979h4.873V458.138L395.599,458.138
		z M380.599,450.006l4.826,7.757h0.033v-7.757h2.38v11.565h-2.542l-4.811-7.745h-0.033v7.745h-2.381v-11.565H380.599
		L380.599,450.006z M375.42,450.006v2.136h-6.107v2.479h5.604v1.98h-5.604v2.831h6.235v2.14h-8.782v-11.565H375.42L375.42,450.006z
		 M360.886,461.48c-0.547,0.233-1.104,0.352-1.668,0.352c-0.885,0-1.682-0.155-2.387-0.462c-0.709-0.309-1.307-0.732-1.792-1.272
		s-0.855-1.175-1.117-1.903c-0.261-0.729-0.389-1.515-0.389-2.357c0-0.863,0.128-1.665,0.389-2.405
		c0.262-0.74,0.632-1.385,1.117-1.937c0.485-0.551,1.083-0.979,1.792-1.294c0.705-0.314,1.502-0.471,2.387-0.471
		c0.593,0,1.168,0.088,1.728,0.268c0.554,0.178,1.058,0.439,1.506,0.785s0.819,0.773,1.109,1.28c0.294,0.508,0.47,1.09,0.535,1.75
		h-2.431c-0.151-0.65-0.44-1.135-0.874-1.458c-0.434-0.324-0.955-0.487-1.573-0.487c-0.571,0-1.057,0.11-1.458,0.332
		c-0.399,0.222-0.723,0.519-0.969,0.892c-0.25,0.371-0.43,0.797-0.544,1.271c-0.114,0.477-0.172,0.968-0.172,1.475
		c0,0.484,0.058,0.959,0.172,1.418c0.114,0.458,0.294,0.873,0.544,1.237c0.246,0.367,0.569,0.663,0.969,0.884
		c0.401,0.224,0.887,0.333,1.458,0.333c0.843,0,1.495-0.214,1.954-0.642c0.46-0.424,0.725-1.043,0.797-1.853h-2.556v-1.897h4.859
		v6.255h-1.619l-0.257-1.313C361.94,460.841,361.438,461.25,360.886,461.48 M344.171,450.006l4.826,7.757h0.033v-7.757h2.38v11.565
		h-2.542l-4.812-7.745h-0.032v7.745h-2.38v-11.565H344.171L344.171,450.006z M335.877,450.006l4.323,11.565h-2.637l-0.874-2.577
		h-4.327l-0.907,2.577h-2.56l4.374-11.565H335.877L335.877,450.006z M336.024,457.1l-1.458-4.244h-0.033l-1.506,4.244H336.024
		L336.024,457.1z M322.207,450.006v9.426h5.638v2.14h-8.184v-11.565H322.207L322.207,450.006z M313.979,450.006
		c0.518,0,0.984,0.082,1.402,0.25c0.412,0.167,0.772,0.396,1.066,0.688c0.301,0.292,0.524,0.63,0.683,1.015
		c0.154,0.384,0.235,0.795,0.235,1.237c0,0.682-0.145,1.268-0.43,1.767c-0.287,0.496-0.758,0.874-1.403,1.133v0.033
		c0.316,0.087,0.573,0.219,0.779,0.396c0.205,0.178,0.371,0.388,0.499,0.632c0.132,0.242,0.228,0.511,0.286,0.803
		c0.059,0.291,0.1,0.581,0.121,0.875c0.012,0.183,0.022,0.397,0.033,0.647c0.007,0.248,0.029,0.503,0.055,0.76
		c0.026,0.262,0.073,0.506,0.129,0.738c0.059,0.232,0.15,0.428,0.269,0.592h-2.542c-0.14-0.368-0.228-0.807-0.261-1.313
		c-0.029-0.507-0.081-0.992-0.144-1.458c-0.088-0.605-0.271-1.047-0.551-1.33c-0.283-0.279-0.742-0.419-1.377-0.419h-2.546v4.52
		h-2.541v-11.565H313.979L313.979,450.006z M313.072,455.238c0.584,0,1.021-0.131,1.311-0.39c0.294-0.259,0.438-0.679,0.438-1.261
		c0-0.564-0.144-0.973-0.438-1.226c-0.29-0.254-0.727-0.38-1.311-0.38h-2.788v3.256H313.072L313.072,455.238z M305.253,450.006
		v2.136h-6.108v2.479h5.604v1.98h-5.604v2.831h6.236v2.14h-8.778v-11.565H305.253L305.253,450.006z"/>
	<path fill="#003865" d="M398.151,434.649v-2.137h9.476v2.137h-3.467v9.427h-2.541v-9.427H398.151L398.151,434.649z
		 M394.067,432.512l4.327,11.563h-2.642l-0.874-2.574h-4.323l-0.906,2.574h-2.564l4.374-11.563H394.067L394.067,432.512z
		 M394.214,439.606l-1.458-4.244h-0.033l-1.506,4.244H394.214L394.214,439.606z M395.496,431.213h-2.189v-1.896h2.189V431.213
		L395.496,431.213z M392.157,431.213h-2.189v-1.896h2.189V431.213L392.157,431.213z M377.789,434.649v-2.137h9.477v2.137h-3.465
		v9.427h-2.545v-9.427H377.789L377.789,434.649z M375.747,444.076h-2.542v-11.563h2.542V444.076L375.747,444.076z M363.924,441.226
		c0.14,0.27,0.326,0.488,0.562,0.657c0.231,0.165,0.504,0.29,0.815,0.371c0.313,0.081,0.636,0.121,0.97,0.121
		c0.231,0,0.471-0.017,0.73-0.058c0.261-0.036,0.504-0.107,0.731-0.218c0.228-0.109,0.415-0.258,0.565-0.444
		c0.15-0.189,0.229-0.43,0.229-0.722c0-0.313-0.101-0.566-0.303-0.761c-0.197-0.194-0.462-0.356-0.785-0.486
		c-0.323-0.131-0.69-0.243-1.099-0.34c-0.411-0.098-0.83-0.208-1.252-0.325c-0.43-0.108-0.852-0.24-1.26-0.396
		c-0.411-0.156-0.779-0.358-1.102-0.606c-0.323-0.25-0.588-0.56-0.786-0.931c-0.202-0.375-0.302-0.825-0.302-1.354
		c0-0.595,0.13-1.109,0.383-1.548c0.253-0.436,0.584-0.803,0.994-1.093c0.412-0.292,0.875-0.507,1.393-0.648s1.04-0.212,1.554-0.212
		c0.606,0,1.187,0.068,1.745,0.204c0.558,0.134,1.05,0.354,1.484,0.656c0.429,0.303,0.773,0.688,1.023,1.156
		c0.257,0.471,0.382,1.04,0.382,1.712h-2.461c-0.021-0.347-0.095-0.634-0.22-0.859c-0.125-0.228-0.29-0.406-0.492-0.534
		c-0.206-0.129-0.44-0.223-0.705-0.277c-0.265-0.054-0.555-0.079-0.866-0.079c-0.206,0-0.412,0.02-0.617,0.064
		c-0.202,0.044-0.391,0.117-0.56,0.228c-0.169,0.106-0.304,0.242-0.41,0.402c-0.11,0.163-0.161,0.369-0.161,0.617
		c0,0.228,0.04,0.409,0.128,0.549c0.085,0.142,0.257,0.271,0.51,0.39c0.254,0.119,0.607,0.238,1.055,0.357
		c0.444,0.118,1.032,0.269,1.755,0.454c0.218,0.042,0.515,0.119,0.9,0.234c0.382,0.112,0.764,0.294,1.139,0.544
		c0.378,0.246,0.705,0.578,0.984,0.995c0.271,0.415,0.412,0.946,0.412,1.595c0,0.528-0.104,1.022-0.31,1.476
		c-0.206,0.452-0.511,0.846-0.915,1.175c-0.403,0.327-0.906,0.584-1.505,0.769c-0.599,0.182-1.293,0.274-2.083,0.274
		c-0.635,0-1.256-0.077-1.854-0.233c-0.599-0.158-1.127-0.404-1.586-0.739c-0.46-0.334-0.823-0.762-1.096-1.279
		c-0.268-0.518-0.396-1.133-0.389-1.846h2.464C363.714,440.626,363.784,440.956,363.924,441.226 M356.053,432.512
		c0.518,0,0.984,0.084,1.399,0.249c0.415,0.167,0.771,0.397,1.069,0.688c0.297,0.293,0.524,0.631,0.679,1.014
		c0.158,0.384,0.235,0.797,0.235,1.239c0,0.68-0.144,1.271-0.427,1.765c-0.286,0.498-0.753,0.876-1.402,1.133v0.033
		c0.312,0.089,0.572,0.219,0.778,0.398c0.202,0.181,0.371,0.39,0.499,0.632c0.132,0.244,0.229,0.511,0.287,0.801
		c0.06,0.292,0.1,0.584,0.121,0.876c0.011,0.182,0.022,0.4,0.033,0.646c0.011,0.25,0.029,0.503,0.055,0.765
		c0.029,0.257,0.07,0.503,0.129,0.735c0.063,0.232,0.147,0.428,0.269,0.59h-2.542c-0.144-0.366-0.228-0.805-0.262-1.313
		c-0.032-0.507-0.08-0.992-0.143-1.457c-0.088-0.605-0.271-1.047-0.555-1.327c-0.279-0.281-0.738-0.423-1.377-0.423h-2.541v4.52
		h-2.542v-11.563H356.053L356.053,432.512z M355.146,437.744c0.584,0,1.021-0.13,1.311-0.388c0.291-0.263,0.438-0.681,0.438-1.265
		c0-0.563-0.146-0.968-0.438-1.224c-0.29-0.253-0.727-0.382-1.311-0.382h-2.787v3.258H355.146L355.146,437.744z M347.326,432.512
		v2.137h-6.108v2.478h5.602v1.979h-5.602v2.833h6.236v2.138h-8.782v-11.563H347.326L347.326,432.512z M330.089,444.076
		l-3.743-11.563h2.608l2.578,8.13h0.033l2.604-8.13h2.626l-3.838,11.563H330.089L330.089,444.076z M324.51,444.076h-2.542v-11.563
		h2.542V444.076L324.51,444.076z M311.894,432.512l4.825,7.759h0.033v-7.759h2.38v11.563h-2.541l-4.812-7.742h-0.033v7.742h-2.38
		v-11.563H311.894L311.894,432.512z M305.187,443.192c-0.874,0.763-2.082,1.144-3.63,1.144c-1.563,0-2.775-0.377-3.636-1.134
		c-0.855-0.757-1.289-1.921-1.289-3.498v-7.191h2.544v7.191c0,0.312,0.026,0.62,0.081,0.923c0.056,0.302,0.166,0.57,0.343,0.803
		c0.172,0.231,0.41,0.421,0.72,0.563c0.308,0.147,0.72,0.224,1.236,0.224c0.911,0,1.536-0.206,1.882-0.61
		c0.345-0.404,0.518-1.039,0.518-1.902v-7.191h2.542v7.191C306.498,441.268,306.062,442.432,305.187,443.192"/>
	<path fill="#003865" d="M497.371,414.801c0.518,0,0.985,0.083,1.403,0.252c0.415,0.165,0.771,0.395,1.068,0.688
		c0.294,0.29,0.522,0.628,0.681,1.01c0.153,0.384,0.234,0.799,0.234,1.24c0,0.682-0.143,1.271-0.43,1.765
		c-0.286,0.498-0.753,0.876-1.403,1.135v0.033c0.313,0.086,0.573,0.218,0.779,0.396c0.205,0.178,0.374,0.39,0.503,0.632
		c0.128,0.242,0.224,0.51,0.283,0.801c0.058,0.291,0.099,0.583,0.121,0.875c0.011,0.184,0.021,0.4,0.033,0.648
		c0.011,0.248,0.028,0.502,0.055,0.763c0.029,0.257,0.07,0.503,0.132,0.736c0.06,0.231,0.147,0.43,0.265,0.59h-2.542
		c-0.14-0.368-0.228-0.803-0.261-1.31c-0.033-0.509-0.08-0.996-0.143-1.46c-0.088-0.604-0.272-1.047-0.551-1.327
		c-0.283-0.282-0.742-0.423-1.378-0.423h-2.542v4.52h-2.545v-11.565H497.371L497.371,414.801z M496.464,420.033
		c0.584,0,1.021-0.131,1.312-0.39c0.294-0.259,0.438-0.679,0.438-1.263c0-0.561-0.144-0.97-0.438-1.223
		c-0.29-0.253-0.728-0.38-1.312-0.38h-2.784v3.256H496.464L496.464,420.033z M488.725,414.801v2.138h-6.107v2.479h5.604v1.976
		h-5.604v2.833h6.237v2.139h-8.778v-11.565H488.725L488.725,414.801z M472.737,414.801c0.746,0,1.436,0.118,2.083,0.354
		c0.642,0.239,1.197,0.595,1.667,1.071s0.837,1.069,1.102,1.781c0.261,0.714,0.397,1.55,0.397,2.511c0,0.845-0.111,1.62-0.324,2.334
		c-0.216,0.713-0.543,1.327-0.98,1.846c-0.437,0.518-0.984,0.926-1.635,1.221c-0.657,0.3-1.425,0.447-2.31,0.447h-4.991v-11.565
		H472.737L472.737,414.801z M472.557,424.227c0.367,0,0.728-0.059,1.069-0.176c0.35-0.119,0.654-0.315,0.926-0.593
		c0.269-0.274,0.484-0.634,0.646-1.078c0.162-0.443,0.246-0.983,0.246-1.62c0-0.582-0.06-1.107-0.173-1.578
		s-0.302-0.872-0.559-1.207c-0.257-0.334-0.602-0.591-1.027-0.77c-0.431-0.178-0.955-0.268-1.58-0.268h-1.814v7.289H472.557
		L472.557,424.227z M457.788,414.801l4.823,7.759h0.033v-7.759h2.38v11.565h-2.542l-4.809-7.743h-0.033v7.743h-2.38v-11.565H457.788
		L457.788,414.801z M449.425,414.801l4.323,11.565h-2.641l-0.874-2.573h-4.323l-0.911,2.573h-2.556l4.374-11.565H449.425
		L449.425,414.801z M449.568,421.895l-1.458-4.244h-0.033l-1.502,4.244H449.568L449.568,421.895z M430.829,414.801h2.946l2.27,3.693
		l2.348-3.693h2.786l-3.709,5.524l4.033,6.041h-3.03l-2.527-4.001l-2.574,4.001h-2.85l4.032-6.057L430.829,414.801L430.829,414.801z
		 M428.868,414.801v2.138h-6.108v2.479h5.605v1.976h-5.605v2.833h6.236v2.139h-8.778v-11.565H428.868L428.868,414.801z
		 M412.546,414.801v9.426h5.638v2.139h-8.18v-11.565H412.546L412.546,414.801z M403.925,414.801l4.327,11.565h-2.645l-0.87-2.573
		h-4.327l-0.907,2.573h-2.56l4.374-11.565H403.925L403.925,414.801z M404.072,421.895l-1.458-4.244h-0.033l-1.506,4.244H404.072
		L404.072,421.895z M395.725,422.933h-4.879v-1.976h4.879V422.933L395.725,422.933z M380.738,414.801v4.437h4.679v-4.437h2.546
		v11.565h-2.546v-4.988h-4.679v4.988h-2.545v-11.565H380.738L380.738,414.801z M373.01,417.886
		c-0.149-0.242-0.341-0.456-0.564-0.639c-0.229-0.186-0.481-0.329-0.772-0.43c-0.282-0.103-0.584-0.152-0.896-0.152
		c-0.573,0-1.059,0.108-1.458,0.331c-0.4,0.22-0.724,0.52-0.97,0.891c-0.25,0.373-0.434,0.797-0.544,1.272
		c-0.113,0.476-0.173,0.966-0.173,1.473c0,0.486,0.06,0.958,0.173,1.417c0.11,0.46,0.294,0.87,0.544,1.238
		c0.246,0.368,0.569,0.663,0.97,0.883c0.399,0.223,0.885,0.334,1.458,0.334c0.778,0,1.385-0.236,1.822-0.712
		c0.437-0.476,0.704-1.104,0.801-1.881h2.464c-0.066,0.724-0.231,1.376-0.503,1.96c-0.269,0.584-0.628,1.079-1.069,1.491
		c-0.444,0.409-0.962,0.724-1.557,0.938c-0.592,0.216-1.245,0.322-1.958,0.322c-0.885,0-1.683-0.152-2.392-0.461
		c-0.705-0.308-1.304-0.73-1.789-1.271c-0.483-0.54-0.858-1.175-1.115-1.904c-0.262-0.727-0.391-1.513-0.391-2.356
		c0-0.863,0.129-1.666,0.391-2.406c0.257-0.74,0.632-1.385,1.115-1.936c0.485-0.549,1.084-0.982,1.789-1.296
		c0.709-0.314,1.507-0.47,2.392-0.47c0.639,0,1.237,0.092,1.804,0.277c0.569,0.182,1.076,0.45,1.524,0.801
		c0.447,0.353,0.818,0.786,1.108,1.304c0.29,0.52,0.479,1.113,0.551,1.783h-2.461C373.26,418.396,373.165,418.13,373.01,417.886
		 M362.858,426.366h-2.541v-11.565h2.541V426.366L362.858,426.366z M354.367,414.801c0.518,0,0.984,0.083,1.398,0.252
		c0.42,0.165,0.771,0.395,1.069,0.688c0.297,0.29,0.525,0.628,0.684,1.01c0.153,0.384,0.234,0.799,0.234,1.24
		c0,0.682-0.143,1.271-0.43,1.765c-0.286,0.498-0.753,0.876-1.403,1.135v0.033c0.313,0.086,0.573,0.218,0.779,0.396
		c0.202,0.178,0.371,0.39,0.503,0.632c0.129,0.242,0.221,0.51,0.283,0.801c0.059,0.291,0.099,0.583,0.121,0.875
		c0.011,0.184,0.021,0.4,0.032,0.648c0.012,0.248,0.03,0.502,0.056,0.763c0.029,0.257,0.069,0.503,0.129,0.736
		c0.059,0.231,0.149,0.43,0.268,0.59h-2.542c-0.139-0.368-0.227-0.803-0.26-1.31c-0.034-0.509-0.081-0.996-0.144-1.46
		c-0.089-0.604-0.272-1.047-0.555-1.327c-0.278-0.282-0.738-0.423-1.374-0.423h-2.545v4.52h-2.542v-11.565H354.367L354.367,414.801z
		 M353.459,420.033c0.581,0,1.021-0.131,1.313-0.39c0.29-0.259,0.437-0.679,0.437-1.263c0-0.561-0.146-0.97-0.437-1.223
		c-0.291-0.253-0.731-0.38-1.313-0.38h-2.787v3.256H353.459L353.459,420.033z M340.817,414.801c0.746,0,1.439,0.118,2.083,0.354
		c0.643,0.239,1.196,0.595,1.667,1.071c0.47,0.476,0.838,1.069,1.102,1.781c0.265,0.714,0.397,1.55,0.397,2.511
		c0,0.845-0.11,1.62-0.327,2.334c-0.213,0.713-0.54,1.327-0.978,1.846c-0.437,0.518-0.98,0.926-1.638,1.221
		c-0.649,0.3-1.422,0.447-2.307,0.447h-4.988v-11.565H340.817L340.817,414.801z M340.641,424.227c0.367,0,0.721-0.059,1.069-0.176
		c0.345-0.119,0.65-0.315,0.922-0.593c0.269-0.274,0.484-0.634,0.646-1.078c0.162-0.443,0.243-0.983,0.243-1.62
		c0-0.582-0.057-1.107-0.169-1.578c-0.111-0.47-0.299-0.872-0.56-1.207c-0.261-0.334-0.602-0.591-1.027-0.77
		c-0.427-0.178-0.951-0.268-1.579-0.268h-1.815v7.289H340.641L340.641,424.227z M333.336,414.801v2.138h-6.104v2.479h5.604v1.976
		h-5.604v2.833h6.236v2.139h-8.781v-11.565H333.336L333.336,414.801z M321.773,426.366h-2.545v-11.565h2.545V426.366
		L321.773,426.366z M313.035,414.801c0.518,0,0.988,0.083,1.403,0.252c0.415,0.165,0.771,0.395,1.065,0.688
		c0.301,0.29,0.525,0.628,0.684,1.01c0.157,0.384,0.234,0.799,0.234,1.24c0,0.682-0.143,1.271-0.43,1.765
		c-0.286,0.498-0.753,0.876-1.399,1.135v0.033c0.313,0.086,0.573,0.218,0.775,0.396c0.205,0.178,0.374,0.39,0.503,0.632
		c0.128,0.242,0.224,0.51,0.283,0.801c0.058,0.291,0.099,0.583,0.121,0.875c0.011,0.184,0.021,0.4,0.033,0.648
		c0.011,0.248,0.028,0.502,0.055,0.763c0.029,0.257,0.073,0.503,0.129,0.736c0.062,0.231,0.15,0.43,0.268,0.59h-2.542
		c-0.14-0.368-0.224-0.803-0.257-1.31c-0.033-0.509-0.085-0.996-0.146-1.46c-0.088-0.604-0.269-1.047-0.552-1.327
		c-0.282-0.282-0.737-0.423-1.377-0.423h-2.546v4.52h-2.541v-11.565H313.035L313.035,414.801z M312.128,420.033
		c0.584,0,1.021-0.131,1.315-0.39c0.29-0.259,0.433-0.679,0.433-1.263c0-0.561-0.143-0.97-0.433-1.223
		c-0.294-0.253-0.731-0.38-1.315-0.38h-2.788v3.256H312.128L312.128,420.033z M304.735,414.801v2.138h-5.591v2.672h4.845v1.978
		h-4.845v4.777h-2.542v-11.565H304.735L304.735,414.801z"/>
	<path fill="#003865" d="M271.26,456.07h-48.229c2.967,2.42,6.394,4.233,10.027,5.494h28.153
		C264.854,460.303,268.292,458.49,271.26,456.07"/>
	<polygon fill="#003865" points="138.491,453.317 159.394,453.317 159.427,453.218 159.368,453.218 161.102,447.824 140.57,447.824 
		138.491,453.317 	"/>
	<polygon fill="#003865" points="137.533,456.07 135.45,461.564 156.746,461.564 158.564,456.07 137.533,456.07 	"/>
	<polygon fill="#003865" points="92.922,461.564 112.88,461.564 112.88,456.07 92.922,456.07 92.922,461.564 	"/>
	<polygon fill="#003865" points="112.88,447.824 92.922,447.824 92.922,453.317 112.88,453.317 112.88,447.824 	"/>
	<polygon fill="#003865" points="112.88,439.583 92.922,439.583 92.922,445.075 112.88,445.075 112.88,439.583 	"/>
	<polygon fill="#003865" points="112.88,431.343 92.922,431.343 92.922,436.834 112.88,436.834 112.88,431.343 	"/>
	<polygon fill="#003865" points="112.88,406.606 92.922,406.606 92.922,412.1 112.88,412.1 112.88,406.606 	"/>
	<polygon fill="#003865" points="112.88,398.35 92.922,398.35 92.922,403.845 112.88,403.845 112.88,398.35 	"/>
	<polygon fill="#003865" points="92.922,387.362 153.918,387.362 153.918,381.87 92.922,381.87 92.922,387.362 	"/>
	<polygon fill="#003865" points="92.922,395.604 153.918,395.604 153.918,390.11 92.922,390.11 92.922,395.604 	"/>
	<polygon fill="#003865" points="173.77,406.606 155.769,406.606 153.686,412.1 172.076,412.1 173.77,406.606 	"/>
	<polygon fill="#003865" points="162.806,387.362 187.65,387.362 185.519,381.87 164.889,381.87 162.806,387.362 	"/>
	<polygon fill="#003865" points="159.765,395.604 190.757,395.604 188.627,390.11 161.847,390.11 159.765,395.604 	"/>
	<polygon fill="#003865" points="176.311,403.859 193.868,403.859 191.738,398.365 158.81,398.365 156.727,403.859 174.545,403.859 
		175.316,401.341 175.54,401.341 176.311,403.859 	"/>
	<polygon fill="#003865" points="178.776,412.1 196.975,412.1 194.845,406.606 177.09,406.606 178.776,412.1 	"/>
	<polygon fill="#003865" points="181.24,420.331 200.082,420.331 197.956,414.838 179.551,414.838 181.24,420.331 	"/>
	<polygon fill="#003865" points="183.701,428.571 203.193,428.571 201.063,423.076 182.015,423.076 183.701,428.571 	"/>
	<polygon fill="#003865" points="144.57,436.834 206.301,436.834 204.17,431.343 146.653,431.343 144.57,436.834 	"/>
	<polygon fill="#003865" points="141.529,445.077 209.411,445.077 207.281,439.584 143.612,439.584 141.529,445.077 	"/>
	<polygon fill="#003865" points="191.635,453.317 212.522,453.317 210.389,447.824 189.795,447.824 191.635,453.317 	"/>
	<polygon fill="#003865" points="192.406,456.07 194.217,461.564 215.626,461.564 213.5,456.07 192.406,456.07 	"/>
	<polygon fill="#003865" points="213.345,387.362 233.304,387.362 233.304,381.87 213.345,381.87 213.345,387.362 	"/>
	<polygon fill="#003865" points="213.345,395.604 233.304,395.604 233.304,390.11 213.345,390.11 213.345,395.604 	"/>
	<polygon fill="#003865" points="213.345,403.859 233.304,403.859 233.304,398.365 213.345,398.365 213.345,403.859 	"/>
	<polygon fill="#003865" points="213.345,412.1 233.304,412.1 233.304,406.606 213.345,406.606 213.345,412.1 	"/>
	<polygon fill="#003865" points="213.345,420.331 233.304,420.331 233.304,414.836 213.345,414.836 213.345,420.331 	"/>
	<polygon fill="#003865" points="213.345,428.571 233.304,428.571 233.304,423.076 213.345,423.076 213.345,428.571 	"/>
	<path fill="#003865" d="M213.503,436.834h20.175c-0.253-1.421-0.374-2.939-0.374-4.541v-0.95h-19.959v2.588
		C213.345,434.941,213.422,435.889,213.503,436.834"/>
	<path fill="#003865" d="M215.288,445.077h22.765c-1.774-1.383-2.975-3.26-3.732-5.492h-20.487
		C214.161,441.542,214.631,443.387,215.288,445.077"/>
	<path fill="#003865" d="M277.882,447.824h-61.463c1.073,2.052,2.395,3.873,3.898,5.493h53.668
		C275.487,451.697,276.813,449.875,277.882,447.824"/>
	<path fill="#003865" d="M280.475,439.584H259.98c-0.756,2.232-1.972,4.109-3.75,5.492h22.783
		C279.671,443.387,280.141,441.542,280.475,439.584"/>
	<polygon fill="#003865" points="261.001,387.362 280.96,387.362 280.96,381.87 261.001,381.87 261.001,387.362 	"/>
	<polygon fill="#003865" points="261.001,395.604 280.96,395.604 280.96,390.11 261.001,390.11 261.001,395.604 	"/>
	<polygon fill="#003865" points="261.001,403.859 280.96,403.859 280.96,398.365 261.001,398.365 261.001,403.859 	"/>
	<polygon fill="#003865" points="261.001,412.1 280.96,412.1 280.96,406.606 261.001,406.606 261.001,412.1 	"/>
	<polygon fill="#003865" points="261.001,420.331 280.96,420.331 280.96,414.836 261.001,414.836 261.001,420.331 	"/>
	<polygon fill="#003865" points="261.001,428.571 280.96,428.571 280.96,423.076 261.001,423.076 261.001,428.571 	"/>
	<path fill="#003865" d="M280.96,433.931v-2.588h-19.959v0.95c0,1.602-0.121,3.12-0.374,4.541h20.171
		C280.879,435.889,280.96,434.941,280.96,433.931"/>
	<polygon fill="#003865" points="92.922,423.076 92.922,428.569 167.155,428.569 168.841,423.076 92.922,423.076 	"/>
	<polygon fill="#003865" points="92.922,414.838 92.922,420.331 169.616,420.331 171.305,414.838 92.922,414.838 	"/>
</g>
</svg>