<?xml version="1.0" encoding="utf-8"?>
<!-- Generator: Adobe Illustrator 16.comp_thinking.memory, SVG Export Plug-In . SVG Version: python.00 Build comp_thinking)  -->
<!DOCTYPE svg PUBLIC "-//W3C//DTD SVG 1.1//EN" "http://www.w3.org/Graphics/SVG/1.1/DTD/svg11.dtd">
<svg version="1.1" id="Ebene_1" xmlns="http://www.w3.org/2000/svg" xmlns:xlink="http://www.w3.org/1999/xlink" x="0px" y="0px"
	 width="841.89px" height="595.28px" viewBox="0 0 841.89 595.28" enable-background="new 0 0 841.89 595.28" xml:space="preserve">
<g>
	<g>
		<defs>
			<rect id="SVGID_1_" x="182" y="209.28" width="477.153" height="177.092"/>
		</defs>
		<clipPath id="SVGID_2_">
			<use xlink:href="#SVGID_1_"  overflow="visible"/>
		</clipPath>
		<polygon clip-path="url(#SVGID_2_)" fill="#FFFFFF" points="182,386.372 659.154,386.372 659.154,209.281 182,209.281 
			182,386.372 		"/>
	</g>
	<path fill="#8D1429" d="M617.342,344.137v-1.821h8.067v1.821h-2.951v8.026h-2.165v-8.026H617.342L617.342,344.137z
		 M613.978,342.315l3.682,9.848h-2.248l-0.745-2.192h-3.682l-0.771,2.192h-2.182l3.726-9.848H613.978L613.978,342.315z
		 M614.101,348.356l-1.241-3.613h-0.026l-1.283,3.613H614.101L614.101,348.356z M615.191,341.213h-1.862v-1.615h1.862V341.213
		L615.191,341.213z M612.349,341.213h-1.861v-1.615h1.861V341.213L612.349,341.213z M600.212,344.137v-1.821h8.071v1.821h-2.951
		v8.026h-2.167v-8.026H600.212L600.212,344.137z M595.77,342.315v8.027h4.801v1.82h-6.966v-9.848H595.77L595.77,342.315z
		 M590.124,351.412c-0.746,0.647-1.773,0.973-3.089,0.973c-1.334,0-2.364-0.323-3.095-0.966c-0.732-0.645-1.1-1.637-1.1-2.979
		v-6.124h2.167v6.124c0,0.267,0.021,0.529,0.069,0.786c0.045,0.257,0.142,0.486,0.288,0.683c0.148,0.198,0.353,0.358,0.616,0.483
		c0.26,0.123,0.612,0.186,1.054,0.186c0.774,0,1.306-0.173,1.601-0.518c0.294-0.344,0.441-0.885,0.441-1.62v-6.124h2.165v6.124
		C591.242,349.772,590.868,350.764,590.124,351.412 M574.627,342.315v4.082l3.851-4.082h2.702l-3.848,3.89l4.221,5.958h-2.72
		l-2.964-4.428l-1.242,1.256v3.172h-2.165v-9.848H574.627L574.627,342.315z M567.285,342.315l3.684,9.848h-2.248l-0.743-2.192
		h-3.684l-0.772,2.192h-2.181l3.725-9.848H567.285L567.285,342.315z M567.41,348.356l-1.241-3.613h-0.027l-1.284,3.613H567.41
		L567.41,348.356z M561.357,342.315v1.821h-4.76v2.276h4.125v1.682h-4.125v4.068h-2.163v-9.848H561.357L561.357,342.315z
		 M548.419,342.315v1.821h-5.2v2.11h4.773v1.682h-4.773v2.414h5.313v1.82h-7.477v-9.848H548.419L548.419,342.315z M532.351,342.315
		v3.779h3.984v-3.779h2.167v9.848h-2.167v-4.248h-3.984v4.248h-2.166v-9.848H532.351L532.351,342.315z M525.771,344.942
		c-0.127-0.206-0.289-0.388-0.482-0.545c-0.193-0.155-0.41-0.277-0.656-0.365c-0.242-0.087-0.497-0.131-0.765-0.131
		c-0.487,0-0.901,0.095-1.241,0.282c-0.34,0.188-0.615,0.443-0.826,0.759c-0.212,0.317-0.366,0.679-0.462,1.083
		c-0.098,0.405-0.146,0.823-0.146,1.256c0,0.412,0.048,0.815,0.146,1.206c0.096,0.393,0.25,0.743,0.462,1.057
		c0.211,0.312,0.486,0.563,0.826,0.752c0.34,0.187,0.754,0.281,1.241,0.281c0.663,0,1.179-0.202,1.553-0.606
		c0.372-0.405,0.599-0.938,0.682-1.601h2.098c-0.054,0.616-0.199,1.174-0.431,1.669c-0.227,0.498-0.531,0.919-0.908,1.27
		c-0.375,0.35-0.818,0.615-1.323,0.799c-0.507,0.186-1.061,0.277-1.67,0.277c-0.755,0-1.433-0.131-2.034-0.393
		c-0.603-0.265-1.108-0.624-1.524-1.084c-0.413-0.459-0.73-1-0.952-1.62c-0.221-0.622-0.33-1.29-0.33-2.007
		c0-0.734,0.109-1.419,0.33-2.049c0.222-0.63,0.539-1.179,0.952-1.646c0.416-0.471,0.922-0.838,1.524-1.105
		c0.602-0.266,1.279-0.398,2.034-0.398c0.544,0,1.055,0.077,1.538,0.233c0.48,0.156,0.914,0.385,1.296,0.684
		c0.384,0.298,0.698,0.669,0.944,1.109c0.248,0.441,0.406,0.947,0.471,1.518h-2.098C525.984,345.379,525.9,345.149,525.771,344.942
		 M517.127,352.163h-2.165v-9.848h2.165V352.163L517.127,352.163z M508.498,342.315v8.027h4.801v1.82h-6.966v-9.848H508.498
		L508.498,342.315z M496.772,344.137v-1.821h8.067v1.821h-2.949v8.026h-2.165v-8.026H496.772L496.772,344.137z M495.46,342.315
		v1.821h-4.758v2.276h4.123v1.682h-4.123v4.068h-2.166v-9.848H495.46L495.46,342.315z M483.223,342.315l3.682,9.848h-2.247
		l-0.744-2.192h-3.683l-0.773,2.192h-2.18l3.725-9.848H483.223L483.223,342.315z M483.346,348.356l-1.238-3.613h-0.029l-1.283,3.613
		H483.346L483.346,348.356z M469.832,342.315v3.779h3.986v-3.779h2.164v9.848h-2.164v-4.248h-3.986v4.248h-2.163v-9.848H469.832
		L469.832,342.315z M463.186,344.942c-0.128-0.206-0.29-0.388-0.482-0.545c-0.193-0.155-0.412-0.277-0.654-0.365
		c-0.246-0.087-0.501-0.131-0.767-0.131c-0.486,0-0.9,0.095-1.24,0.282c-0.341,0.188-0.617,0.443-0.829,0.759
		c-0.212,0.317-0.362,0.679-0.462,1.083c-0.095,0.405-0.144,0.823-0.144,1.256c0,0.412,0.049,0.815,0.144,1.206
		c0.1,0.393,0.25,0.743,0.462,1.057c0.212,0.312,0.488,0.563,0.829,0.752c0.34,0.187,0.754,0.281,1.24,0.281
		c0.661,0,1.18-0.202,1.552-0.606c0.373-0.405,0.601-0.938,0.685-1.601h2.093c-0.052,0.616-0.196,1.174-0.426,1.669
		c-0.229,0.498-0.533,0.919-0.91,1.27c-0.377,0.35-0.817,0.615-1.323,0.799c-0.507,0.186-1.061,0.277-1.67,0.277
		c-0.755,0-1.43-0.131-2.034-0.393c-0.601-0.265-1.109-0.624-1.521-1.084c-0.417-0.459-0.734-1-0.955-1.62
		c-0.221-0.622-0.331-1.29-0.331-2.007c0-0.734,0.11-1.419,0.331-2.049s0.538-1.179,0.955-1.646c0.411-0.471,0.92-0.838,1.521-1.105
		c0.604-0.266,1.279-0.398,2.034-0.398c0.542,0,1.055,0.077,1.538,0.233c0.482,0.156,0.916,0.385,1.298,0.684
		c0.381,0.298,0.697,0.669,0.945,1.109c0.246,0.441,0.402,0.947,0.468,1.518h-2.097
		C463.397,345.379,463.316,345.149,463.186,344.942 M448.936,349.735c0.121,0.23,0.277,0.417,0.477,0.561
		c0.197,0.142,0.43,0.248,0.695,0.315c0.269,0.069,0.543,0.104,0.828,0.104c0.192,0,0.4-0.016,0.622-0.047
		c0.22-0.033,0.425-0.097,0.619-0.188c0.194-0.092,0.354-0.219,0.483-0.379c0.128-0.161,0.192-0.366,0.192-0.614
		c0-0.267-0.082-0.482-0.255-0.648c-0.171-0.165-0.394-0.303-0.67-0.414c-0.275-0.109-0.588-0.206-0.938-0.289
		c-0.347-0.083-0.703-0.173-1.063-0.276c-0.368-0.092-0.725-0.205-1.075-0.337c-0.349-0.135-0.661-0.306-0.938-0.518
		c-0.276-0.211-0.499-0.476-0.67-0.792c-0.169-0.318-0.255-0.702-0.255-1.152c0-0.506,0.11-0.945,0.325-1.317
		c0.214-0.372,0.5-0.683,0.849-0.932c0.348-0.248,0.742-0.432,1.188-0.551c0.438-0.12,0.88-0.179,1.321-0.179
		c0.517,0,1.011,0.057,1.483,0.173c0.474,0.113,0.892,0.3,1.261,0.557c0.367,0.257,0.659,0.586,0.876,0.986
		c0.216,0.401,0.324,0.886,0.324,1.457h-2.096c-0.019-0.294-0.081-0.539-0.187-0.732s-0.246-0.345-0.422-0.456
		c-0.173-0.109-0.374-0.187-0.599-0.233c-0.227-0.046-0.472-0.068-0.739-0.068c-0.176,0-0.348,0.019-0.524,0.054
		c-0.174,0.037-0.334,0.104-0.475,0.192c-0.143,0.094-0.261,0.208-0.35,0.346c-0.095,0.139-0.14,0.314-0.14,0.524
		c0,0.193,0.035,0.35,0.109,0.47c0.075,0.119,0.22,0.229,0.436,0.33c0.215,0.103,0.516,0.202,0.895,0.303
		c0.383,0.103,0.882,0.23,1.498,0.388c0.184,0.037,0.438,0.103,0.764,0.199c0.328,0.098,0.652,0.25,0.978,0.463
		c0.318,0.211,0.597,0.493,0.831,0.849c0.235,0.353,0.353,0.805,0.353,1.358c0,0.45-0.089,0.868-0.262,1.254
		c-0.175,0.387-0.437,0.72-0.779,1.001c-0.344,0.279-0.773,0.499-1.283,0.655c-0.513,0.155-1.103,0.234-1.773,0.234
		c-0.543,0-1.068-0.068-1.579-0.201c-0.51-0.133-0.963-0.342-1.352-0.627c-0.393-0.286-0.701-0.648-0.932-1.09
		c-0.229-0.441-0.34-0.964-0.331-1.573h2.097C448.756,349.226,448.816,349.506,448.936,349.735 M438.797,342.315l4.109,6.606h0.029
		v-6.606h2.027v9.848h-2.166l-4.096-6.593h-0.027v6.593h-2.028v-9.848H438.797L438.797,342.315z M434.387,342.315v1.821h-5.198v2.11
		h4.77v1.682h-4.77v2.414h5.308v1.82h-7.474v-9.848H434.387L434.387,342.315z M419.27,349.735c0.12,0.23,0.279,0.417,0.478,0.561
		c0.196,0.142,0.428,0.248,0.695,0.315c0.266,0.069,0.542,0.104,0.827,0.104c0.193,0,0.4-0.016,0.623-0.047
		c0.218-0.033,0.425-0.097,0.618-0.188c0.194-0.092,0.354-0.219,0.482-0.379c0.129-0.161,0.194-0.366,0.194-0.614
		c0-0.267-0.085-0.482-0.257-0.648c-0.168-0.165-0.392-0.303-0.668-0.414c-0.275-0.109-0.588-0.206-0.938-0.289
		c-0.349-0.083-0.704-0.173-1.063-0.276c-0.366-0.092-0.725-0.205-1.075-0.337c-0.351-0.135-0.662-0.306-0.938-0.518
		c-0.276-0.211-0.499-0.476-0.669-0.792c-0.17-0.318-0.255-0.702-0.255-1.152c0-0.506,0.108-0.945,0.324-1.317
		c0.217-0.372,0.499-0.683,0.849-0.932c0.349-0.248,0.744-0.432,1.187-0.551c0.441-0.12,0.882-0.179,1.323-0.179
		c0.515,0,1.01,0.057,1.483,0.173c0.473,0.113,0.895,0.3,1.263,0.557c0.365,0.257,0.659,0.586,0.875,0.986
		c0.216,0.401,0.324,0.886,0.324,1.457h-2.099c-0.017-0.294-0.08-0.539-0.186-0.732c-0.104-0.193-0.245-0.345-0.42-0.456
		c-0.175-0.109-0.375-0.187-0.6-0.233c-0.225-0.046-0.471-0.068-0.739-0.068c-0.173,0-0.347,0.019-0.523,0.054
		c-0.175,0.037-0.334,0.104-0.476,0.192c-0.143,0.094-0.26,0.208-0.352,0.346c-0.091,0.139-0.136,0.314-0.136,0.524
		c0,0.193,0.035,0.35,0.109,0.47c0.074,0.119,0.218,0.229,0.435,0.33c0.215,0.103,0.515,0.202,0.895,0.303
		c0.382,0.103,0.882,0.23,1.498,0.388c0.183,0.037,0.438,0.103,0.765,0.199c0.325,0.098,0.651,0.25,0.975,0.463
		c0.319,0.211,0.599,0.493,0.834,0.849c0.233,0.353,0.351,0.805,0.351,1.358c0,0.45-0.09,0.868-0.262,1.254
		c-0.176,0.387-0.437,0.72-0.779,1.001c-0.346,0.279-0.773,0.499-1.283,0.655c-0.51,0.155-1.102,0.234-1.772,0.234
		c-0.543,0-1.069-0.068-1.58-0.201c-0.51-0.133-0.961-0.342-1.352-0.627c-0.39-0.286-0.7-0.648-0.931-1.09s-0.34-0.964-0.33-1.573
		h2.096C419.092,349.226,419.151,349.506,419.27,349.735 M409.584,349.735c0.117,0.23,0.278,0.417,0.475,0.561
		c0.197,0.142,0.43,0.248,0.696,0.315c0.266,0.069,0.542,0.104,0.828,0.104c0.194,0,0.401-0.016,0.622-0.047
		c0.22-0.033,0.425-0.097,0.619-0.188c0.194-0.092,0.355-0.219,0.483-0.379c0.128-0.161,0.192-0.366,0.192-0.614
		c0-0.267-0.083-0.482-0.255-0.648c-0.168-0.165-0.393-0.303-0.668-0.414c-0.276-0.109-0.587-0.206-0.939-0.289
		c-0.348-0.083-0.701-0.173-1.06-0.276c-0.369-0.092-0.726-0.205-1.076-0.337c-0.351-0.135-0.662-0.306-0.938-0.518
		c-0.276-0.211-0.499-0.476-0.669-0.792c-0.17-0.318-0.255-0.702-0.255-1.152c0-0.506,0.107-0.945,0.324-1.317
		c0.216-0.372,0.499-0.683,0.848-0.932c0.348-0.248,0.745-0.432,1.187-0.551c0.44-0.12,0.882-0.179,1.323-0.179
		c0.514,0,1.009,0.057,1.482,0.173c0.475,0.113,0.895,0.3,1.263,0.557c0.367,0.257,0.659,0.586,0.877,0.986
		c0.215,0.401,0.322,0.886,0.322,1.457h-2.096c-0.018-0.294-0.082-0.539-0.186-0.732s-0.245-0.345-0.422-0.456
		c-0.173-0.109-0.374-0.187-0.6-0.233c-0.224-0.046-0.47-0.068-0.737-0.068c-0.174,0-0.349,0.019-0.523,0.054
		c-0.175,0.037-0.334,0.104-0.477,0.192c-0.142,0.094-0.259,0.208-0.351,0.346c-0.091,0.139-0.138,0.314-0.138,0.524
		c0,0.193,0.037,0.35,0.111,0.47c0.074,0.119,0.218,0.229,0.433,0.33c0.216,0.103,0.516,0.202,0.896,0.303
		c0.382,0.103,0.883,0.23,1.498,0.388c0.185,0.037,0.438,0.103,0.765,0.199c0.326,0.098,0.65,0.25,0.974,0.463
		c0.321,0.211,0.598,0.493,0.832,0.849c0.236,0.353,0.353,0.805,0.353,1.358c0,0.45-0.088,0.868-0.263,1.254
		c-0.175,0.387-0.434,0.72-0.778,1.001c-0.344,0.279-0.773,0.499-1.283,0.655c-0.511,0.155-1.102,0.234-1.774,0.234
		c-0.542,0-1.068-0.068-1.578-0.201c-0.511-0.133-0.962-0.342-1.352-0.627c-0.39-0.286-0.699-0.648-0.93-1.09
		s-0.342-0.964-0.332-1.573h2.098C409.405,349.226,409.464,349.506,409.584,349.735 M405.52,352.163h-2.167v-9.848h2.167V352.163
		L405.52,352.163z M396.994,352.163l-1.67-6.702h-0.025l-1.644,6.702h-2.193l-2.606-9.848h2.167l1.557,6.703h0.027l1.71-6.703h2.029
		l1.683,6.786h0.027l1.613-6.786h2.124l-2.648,9.848H396.994L396.994,352.163z"/>
	<path fill="#8D1429" d="M606.402,334.282h-4.152v-1.684h4.152V334.282L606.402,334.282z M594.406,334.778
		c0.121,0.23,0.279,0.417,0.477,0.56c0.197,0.142,0.433,0.249,0.698,0.316c0.266,0.068,0.542,0.104,0.825,0.104
		c0.194,0,0.399-0.017,0.621-0.048c0.222-0.034,0.43-0.095,0.621-0.188c0.193-0.091,0.354-0.218,0.482-0.378
		c0.13-0.162,0.193-0.366,0.193-0.614c0-0.267-0.084-0.482-0.256-0.648c-0.17-0.165-0.392-0.304-0.67-0.413
		c-0.273-0.111-0.585-0.207-0.936-0.29c-0.35-0.083-0.704-0.174-1.064-0.275c-0.367-0.093-0.725-0.204-1.076-0.339
		c-0.345-0.133-0.66-0.305-0.937-0.518c-0.274-0.209-0.498-0.475-0.668-0.792c-0.17-0.318-0.255-0.701-0.255-1.152
		c0-0.506,0.109-0.944,0.324-1.316c0.216-0.373,0.498-0.684,0.848-0.933c0.348-0.248,0.746-0.431,1.188-0.55
		c0.438-0.12,0.882-0.179,1.322-0.179c0.517,0,1.01,0.057,1.484,0.172c0.474,0.115,0.895,0.3,1.26,0.557
		c0.369,0.26,0.661,0.587,0.88,0.987c0.214,0.4,0.32,0.885,0.32,1.456h-2.097c-0.017-0.294-0.078-0.539-0.185-0.731
		c-0.105-0.192-0.248-0.345-0.422-0.455s-0.375-0.188-0.598-0.233c-0.225-0.048-0.472-0.07-0.739-0.07
		c-0.175,0-0.35,0.019-0.525,0.056c-0.173,0.035-0.332,0.101-0.474,0.192c-0.144,0.092-0.26,0.207-0.353,0.345
		c-0.091,0.138-0.138,0.313-0.138,0.523c0,0.194,0.036,0.35,0.109,0.47c0.073,0.119,0.219,0.23,0.436,0.331
		c0.216,0.102,0.515,0.202,0.896,0.304c0.381,0.103,0.879,0.229,1.496,0.387c0.183,0.037,0.441,0.103,0.765,0.199
		c0.327,0.098,0.651,0.251,0.975,0.462c0.321,0.213,0.6,0.495,0.834,0.849c0.233,0.354,0.351,0.807,0.351,1.358
		c0,0.45-0.087,0.87-0.261,1.256c-0.176,0.386-0.435,0.719-0.78,0.999c-0.345,0.28-0.772,0.5-1.283,0.654
		c-0.51,0.157-1.102,0.235-1.772,0.235c-0.541,0-1.069-0.066-1.579-0.2c-0.511-0.133-0.959-0.342-1.352-0.628
		c-0.391-0.284-0.702-0.647-0.931-1.09c-0.23-0.439-0.34-0.963-0.332-1.572h2.099C594.229,334.268,594.288,334.549,594.406,334.778
		 M583.156,329.179v-1.82h8.069v1.82h-2.952v8.028h-2.167v-8.028H583.156L583.156,329.179z M581.636,327.358v1.82h-4.757v2.275
		h4.124v1.683h-4.124v4.07h-2.165v-9.849H581.636L581.636,327.358z M569.606,327.358l3.682,9.849h-2.247l-0.746-2.194h-3.682
		l-0.771,2.194h-2.18l3.724-9.849H569.606L569.606,327.358z M569.731,333.398l-1.241-3.612h-0.029l-1.282,3.612H569.731
		L569.731,333.398z M556.01,327.358v3.778h3.985v-3.778h2.166v9.849h-2.166v-4.248h-3.985v4.248h-2.167v-9.849H556.01
		L556.01,327.358z M549.5,329.986c-0.129-0.207-0.287-0.39-0.481-0.546s-0.412-0.277-0.655-0.364
		c-0.244-0.088-0.5-0.131-0.766-0.131c-0.488,0-0.902,0.093-1.241,0.281c-0.342,0.189-0.618,0.442-0.827,0.76
		c-0.213,0.316-0.366,0.678-0.461,1.081c-0.099,0.405-0.146,0.824-0.146,1.257c0,0.413,0.048,0.815,0.146,1.206
		c0.095,0.392,0.248,0.742,0.461,1.056c0.209,0.313,0.485,0.563,0.827,0.752c0.339,0.187,0.753,0.282,1.241,0.282
		c0.662,0,1.178-0.201,1.551-0.607c0.373-0.404,0.6-0.937,0.684-1.599h2.096c-0.055,0.615-0.196,1.172-0.427,1.67
		c-0.229,0.495-0.534,0.919-0.911,1.267c-0.378,0.351-0.818,0.617-1.321,0.8c-0.509,0.185-1.063,0.276-1.671,0.276
		c-0.754,0-1.433-0.13-2.034-0.393c-0.603-0.263-1.111-0.623-1.524-1.083c-0.414-0.459-0.729-1-0.952-1.619
		c-0.222-0.621-0.332-1.291-0.332-2.008c0-0.736,0.11-1.419,0.332-2.05c0.223-0.63,0.538-1.179,0.952-1.646
		c0.413-0.47,0.922-0.837,1.524-1.104c0.602-0.266,1.28-0.398,2.034-0.398c0.542,0,1.055,0.078,1.538,0.233
		c0.481,0.156,0.914,0.384,1.297,0.683c0.381,0.299,0.695,0.67,0.943,1.111c0.249,0.44,0.403,0.946,0.469,1.517h-2.097
		C549.713,330.422,549.628,330.192,549.5,329.986 M535.249,334.778c0.121,0.23,0.278,0.417,0.479,0.56
		c0.195,0.142,0.429,0.249,0.695,0.316c0.268,0.068,0.542,0.104,0.826,0.104c0.194,0,0.401-0.017,0.623-0.048
		c0.221-0.034,0.426-0.095,0.62-0.188c0.192-0.091,0.353-0.218,0.483-0.378c0.129-0.162,0.192-0.366,0.192-0.614
		c0-0.267-0.085-0.482-0.255-0.648c-0.171-0.165-0.395-0.304-0.669-0.413c-0.276-0.111-0.59-0.207-0.938-0.29
		c-0.35-0.083-0.703-0.174-1.062-0.275c-0.369-0.093-0.728-0.204-1.075-0.339c-0.351-0.133-0.662-0.305-0.938-0.518
		c-0.276-0.209-0.5-0.475-0.671-0.792c-0.171-0.318-0.256-0.701-0.256-1.152c0-0.506,0.11-0.944,0.326-1.316
		c0.215-0.373,0.497-0.684,0.849-0.933c0.349-0.248,0.746-0.431,1.186-0.55c0.441-0.12,0.882-0.179,1.323-0.179
		c0.515,0,1.009,0.057,1.483,0.172c0.474,0.115,0.896,0.3,1.261,0.557c0.37,0.26,0.659,0.587,0.875,0.987
		c0.217,0.4,0.327,0.885,0.327,1.456h-2.098c-0.019-0.294-0.082-0.539-0.187-0.731c-0.106-0.192-0.246-0.345-0.421-0.455
		c-0.176-0.11-0.375-0.188-0.599-0.233c-0.229-0.048-0.473-0.07-0.737-0.07c-0.177,0-0.352,0.019-0.526,0.056
		c-0.176,0.035-0.332,0.101-0.474,0.192c-0.144,0.092-0.261,0.207-0.354,0.345s-0.138,0.313-0.138,0.523
		c0,0.194,0.038,0.35,0.111,0.47c0.072,0.119,0.218,0.23,0.434,0.331c0.217,0.102,0.515,0.202,0.896,0.304
		c0.382,0.103,0.878,0.229,1.496,0.387c0.184,0.037,0.439,0.103,0.767,0.199c0.325,0.098,0.649,0.251,0.971,0.462
		c0.321,0.213,0.6,0.495,0.836,0.849c0.233,0.354,0.351,0.807,0.351,1.358c0,0.45-0.087,0.87-0.263,1.256
		c-0.173,0.386-0.433,0.719-0.778,0.999c-0.345,0.28-0.771,0.5-1.282,0.654c-0.511,0.157-1.101,0.235-1.772,0.235
		c-0.543,0-1.067-0.066-1.58-0.2c-0.51-0.133-0.961-0.342-1.352-0.628c-0.391-0.284-0.701-0.647-0.932-1.09
		c-0.229-0.439-0.34-0.963-0.329-1.572h2.095C535.07,334.268,535.131,334.549,535.249,334.778 M523.722,329.179v-1.82h8.069v1.82
		h-2.951v8.028h-2.165v-8.028H523.722L523.722,329.179z M519.466,327.358c0.44,0,0.837,0.07,1.192,0.214
		c0.354,0.143,0.657,0.338,0.91,0.586c0.252,0.248,0.444,0.536,0.58,0.861c0.133,0.327,0.199,0.68,0.199,1.056
		c0,0.58-0.12,1.081-0.365,1.504c-0.244,0.425-0.641,0.745-1.193,0.967v0.027c0.268,0.072,0.486,0.185,0.662,0.337
		c0.175,0.151,0.318,0.331,0.427,0.538c0.11,0.207,0.192,0.434,0.242,0.683s0.087,0.497,0.103,0.744
		c0.01,0.157,0.02,0.34,0.029,0.552c0.009,0.212,0.025,0.427,0.048,0.648s0.06,0.431,0.11,0.628
		c0.052,0.196,0.127,0.364,0.228,0.504h-2.165c-0.12-0.313-0.195-0.687-0.221-1.118c-0.029-0.432-0.067-0.846-0.124-1.241
		c-0.074-0.514-0.231-0.891-0.47-1.131c-0.239-0.24-0.631-0.359-1.172-0.359h-2.166v3.85h-2.166v-9.849H519.466L519.466,327.358z
		 M518.693,331.813c0.497,0,0.87-0.108,1.117-0.33c0.249-0.221,0.374-0.579,0.374-1.075c0-0.479-0.125-0.825-0.374-1.042
		c-0.247-0.216-0.62-0.324-1.117-0.324h-2.373v2.771H518.693L518.693,331.813z M511.604,337.207h-2.166v-9.849h2.166V337.207
		L511.604,337.207z M503.077,337.207l-1.669-6.702h-0.028l-1.64,6.702h-2.193l-2.605-9.849h2.164l1.558,6.702h0.028l1.711-6.702
		h2.026l1.681,6.785h0.029l1.615-6.785h2.124l-2.647,9.849H503.077L503.077,337.207z M485.505,327.358
		c0.635,0,1.226,0.103,1.772,0.304c0.547,0.202,1.021,0.507,1.422,0.91c0.398,0.404,0.712,0.909,0.938,1.517
		c0.225,0.607,0.339,1.32,0.339,2.137c0,0.719-0.094,1.38-0.278,1.987c-0.183,0.607-0.461,1.131-0.834,1.573
		c-0.371,0.44-0.836,0.789-1.394,1.041c-0.555,0.253-1.209,0.38-1.965,0.38h-4.248v-9.849H485.505L485.505,327.358z
		 M485.354,335.385c0.313,0,0.616-0.049,0.91-0.151c0.293-0.101,0.557-0.269,0.786-0.504c0.229-0.233,0.415-0.539,0.553-0.918
		c0.138-0.376,0.207-0.835,0.207-1.379c0-0.496-0.05-0.943-0.146-1.343c-0.096-0.401-0.258-0.743-0.474-1.028
		c-0.223-0.284-0.516-0.504-0.877-0.655c-0.366-0.151-0.813-0.228-1.346-0.228h-1.546v6.206H485.354L485.354,335.385z
		 M472.747,327.358l4.108,6.606h0.029v-6.606h2.027v9.849h-2.165l-4.097-6.594h-0.027v6.594h-2.029v-9.849H472.747L472.747,327.358z
		 M466.978,336.455c-0.745,0.646-1.775,0.972-3.091,0.972c-1.335,0-2.363-0.321-3.096-0.964c-0.731-0.646-1.098-1.638-1.098-2.981
		v-6.123h2.166v6.123c0,0.269,0.022,0.529,0.068,0.786c0.048,0.258,0.143,0.486,0.289,0.684c0.148,0.197,0.354,0.358,0.614,0.482
		c0.263,0.124,0.614,0.187,1.056,0.187c0.773,0,1.307-0.172,1.6-0.518c0.295-0.345,0.441-0.885,0.441-1.621v-6.123h2.166v6.123
		C468.094,334.815,467.722,335.806,466.978,336.455 M453.611,334.282h-4.151v-1.684h4.151V334.282L453.611,334.282z
		 M441.619,334.778c0.117,0.23,0.276,0.417,0.474,0.56c0.198,0.142,0.431,0.249,0.698,0.316c0.266,0.068,0.542,0.104,0.828,0.104
		c0.191,0,0.399-0.017,0.619-0.048c0.221-0.034,0.428-0.095,0.621-0.188c0.192-0.091,0.354-0.218,0.481-0.378
		c0.128-0.162,0.194-0.366,0.194-0.614c0-0.267-0.086-0.482-0.256-0.648c-0.17-0.165-0.393-0.304-0.668-0.413
		c-0.275-0.111-0.588-0.207-0.938-0.29c-0.349-0.083-0.704-0.174-1.062-0.275c-0.369-0.093-0.727-0.204-1.076-0.339
		c-0.35-0.133-0.662-0.305-0.938-0.518c-0.276-0.209-0.499-0.475-0.669-0.792c-0.17-0.318-0.253-0.701-0.253-1.152
		c0-0.506,0.106-0.944,0.322-1.316c0.217-0.373,0.499-0.684,0.849-0.933c0.35-0.248,0.744-0.431,1.186-0.55
		c0.441-0.12,0.882-0.179,1.326-0.179c0.513,0,1.006,0.057,1.48,0.172c0.473,0.115,0.895,0.3,1.263,0.557
		c0.368,0.26,0.66,0.587,0.877,0.987c0.214,0.4,0.323,0.885,0.323,1.456h-2.098c-0.018-0.294-0.08-0.539-0.183-0.731
		c-0.109-0.192-0.25-0.345-0.424-0.455c-0.175-0.11-0.374-0.188-0.6-0.233c-0.225-0.048-0.472-0.07-0.738-0.07
		c-0.174,0-0.349,0.019-0.524,0.056c-0.174,0.035-0.334,0.101-0.475,0.192c-0.145,0.092-0.26,0.207-0.354,0.345
		c-0.09,0.138-0.136,0.313-0.136,0.523c0,0.194,0.035,0.35,0.109,0.47c0.074,0.119,0.218,0.23,0.436,0.331
		c0.216,0.102,0.513,0.202,0.896,0.304c0.382,0.103,0.881,0.229,1.497,0.387c0.186,0.037,0.439,0.103,0.765,0.199
		c0.325,0.098,0.649,0.251,0.973,0.462c0.323,0.213,0.6,0.495,0.834,0.849c0.233,0.354,0.351,0.807,0.351,1.358
		c0,0.45-0.085,0.87-0.263,1.256c-0.172,0.386-0.433,0.719-0.776,0.999c-0.347,0.28-0.772,0.5-1.284,0.654
		c-0.51,0.157-1.1,0.235-1.771,0.235c-0.543,0-1.068-0.066-1.58-0.2c-0.51-0.133-0.96-0.342-1.35-0.628
		c-0.392-0.284-0.703-0.647-0.931-1.09c-0.231-0.439-0.342-0.963-0.332-1.572h2.098C441.44,334.268,441.498,334.549,441.619,334.778
		 M430.229,329.179v-1.82h8.068v1.82h-2.953v8.028h-2.163v-8.028H430.229L430.229,329.179z M422.104,327.358v3.778h3.984v-3.778
		h2.166v9.849h-2.166v-4.248h-3.984v4.248h-2.167v-9.849H422.104L422.104,327.358z M415.662,329.986
		c-0.129-0.207-0.291-0.39-0.483-0.546c-0.193-0.156-0.412-0.277-0.655-0.364c-0.243-0.088-0.5-0.131-0.766-0.131
		c-0.486,0-0.9,0.093-1.242,0.281c-0.34,0.189-0.616,0.442-0.827,0.76c-0.21,0.316-0.364,0.678-0.462,1.081
		c-0.095,0.405-0.144,0.824-0.144,1.257c0,0.413,0.049,0.815,0.144,1.206c0.098,0.392,0.252,0.742,0.462,1.056
		c0.211,0.313,0.487,0.563,0.827,0.752c0.342,0.187,0.756,0.282,1.242,0.282c0.664,0,1.18-0.201,1.552-0.607
		c0.374-0.404,0.6-0.937,0.682-1.599h2.098c-0.056,0.615-0.197,1.172-0.428,1.67c-0.231,0.495-0.533,0.919-0.91,1.267
		c-0.378,0.351-0.819,0.617-1.326,0.8c-0.505,0.185-1.06,0.276-1.668,0.276c-0.752,0-1.432-0.13-2.034-0.393
		c-0.601-0.263-1.111-0.623-1.524-1.083c-0.413-0.459-0.731-1-0.952-1.619c-0.22-0.621-0.331-1.291-0.331-2.008
		c0-0.736,0.111-1.419,0.331-2.05c0.221-0.63,0.539-1.179,0.952-1.646c0.413-0.47,0.923-0.837,1.524-1.104
		c0.602-0.266,1.282-0.398,2.034-0.398c0.542,0,1.057,0.078,1.538,0.233c0.483,0.156,0.916,0.384,1.297,0.683
		c0.381,0.299,0.696,0.67,0.945,1.111c0.249,0.44,0.404,0.946,0.468,1.517h-2.096C415.873,330.422,415.79,330.192,415.662,329.986
		 M407.278,327.358v1.82h-5.2v2.11h4.773v1.682h-4.773v2.414h5.311v1.822h-7.474v-9.849H407.278L407.278,327.358z M394.729,327.358
		c0.442,0,0.841,0.07,1.192,0.214c0.355,0.143,0.658,0.338,0.911,0.586c0.254,0.248,0.446,0.536,0.579,0.861
		c0.135,0.327,0.201,0.68,0.201,1.056c0,0.58-0.122,1.081-0.366,1.504c-0.244,0.425-0.642,0.745-1.193,0.967v0.027
		c0.266,0.072,0.487,0.185,0.662,0.337c0.175,0.151,0.318,0.331,0.428,0.538c0.109,0.207,0.191,0.434,0.241,0.683
		c0.051,0.249,0.085,0.497,0.104,0.744c0.01,0.157,0.019,0.34,0.027,0.552c0.008,0.212,0.024,0.427,0.048,0.648
		c0.023,0.222,0.06,0.431,0.111,0.628c0.05,0.196,0.125,0.364,0.229,0.504h-2.165c-0.121-0.313-0.194-0.687-0.222-1.118
		c-0.027-0.432-0.069-0.846-0.125-1.241c-0.074-0.514-0.228-0.891-0.468-1.131c-0.239-0.24-0.629-0.359-1.171-0.359h-2.167v3.85
		h-2.163v-9.849H394.729L394.729,327.358z M393.958,331.813c0.494,0,0.869-0.108,1.116-0.33c0.247-0.221,0.372-0.579,0.372-1.075
		c0-0.479-0.125-0.825-0.372-1.042c-0.247-0.216-0.622-0.324-1.116-0.324h-2.374v2.771H393.958L393.958,331.813z"/>
	<path fill="#083A64" d="M554.488,311.044c-0.467,0.196-0.94,0.296-1.418,0.296c-0.755,0-1.435-0.131-2.035-0.394
		c-0.603-0.263-1.112-0.623-1.524-1.083c-0.414-0.459-0.731-1-0.951-1.621c-0.222-0.621-0.33-1.29-0.33-2.007
		c0-0.734,0.108-1.418,0.33-2.048c0.22-0.63,0.537-1.179,0.951-1.647c0.412-0.47,0.922-0.838,1.524-1.104
		c0.601-0.266,1.28-0.398,2.035-0.398c0.504,0,0.995,0.074,1.467,0.227c0.475,0.152,0.903,0.375,1.283,0.669
		c0.382,0.294,0.698,0.657,0.944,1.089c0.249,0.433,0.401,0.93,0.456,1.491h-2.068c-0.129-0.554-0.379-0.966-0.744-1.243
		c-0.369-0.275-0.815-0.413-1.338-0.413c-0.489,0-0.903,0.094-1.243,0.283c-0.341,0.188-0.614,0.441-0.826,0.758
		c-0.213,0.318-0.367,0.679-0.462,1.083c-0.098,0.405-0.146,0.823-0.146,1.255c0,0.414,0.048,0.816,0.146,1.207
		c0.095,0.392,0.249,0.742,0.462,1.057c0.212,0.312,0.485,0.563,0.826,0.751c0.34,0.188,0.754,0.282,1.243,0.282
		c0.717,0,1.27-0.182,1.662-0.545c0.389-0.362,0.618-0.89,0.683-1.579h-2.181v-1.613h4.137v5.323h-1.377l-0.223-1.115
		C555.386,310.498,554.958,310.846,554.488,311.044 M543.729,301.271c0.438,0,0.837,0.07,1.191,0.214
		c0.353,0.143,0.657,0.337,0.909,0.586c0.253,0.249,0.445,0.536,0.578,0.862c0.134,0.326,0.201,0.678,0.201,1.055
		c0,0.58-0.121,1.08-0.365,1.503c-0.242,0.423-0.64,0.745-1.192,0.967v0.027c0.267,0.073,0.486,0.187,0.663,0.338
		c0.173,0.152,0.316,0.33,0.425,0.538c0.112,0.206,0.192,0.435,0.243,0.683c0.052,0.248,0.085,0.495,0.104,0.744
		c0.008,0.156,0.018,0.341,0.026,0.553c0.011,0.211,0.024,0.427,0.047,0.647c0.025,0.222,0.062,0.432,0.112,0.627
		c0.051,0.198,0.127,0.365,0.229,0.504h-2.168c-0.119-0.313-0.191-0.685-0.22-1.115c-0.026-0.434-0.067-0.848-0.123-1.244
		c-0.073-0.514-0.231-0.891-0.469-1.13c-0.24-0.239-0.63-0.358-1.174-0.358h-2.163v3.848h-2.167v-9.848H543.729L543.729,301.271z
		 M542.956,305.726c0.496,0,0.868-0.11,1.114-0.331c0.25-0.22,0.375-0.58,0.375-1.075c0-0.479-0.125-0.826-0.375-1.042
		c-0.246-0.216-0.618-0.324-1.114-0.324h-2.372v2.772H542.956L542.956,305.726z M536.158,301.271v1.821h-5.199v2.109h4.772v1.684
		h-4.772v2.413h5.31v1.82h-7.477v-9.848H536.158L536.158,301.271z M523.222,309.436c0.213,0,0.414-0.02,0.606-0.061
		c0.193-0.041,0.363-0.111,0.512-0.208c0.146-0.097,0.265-0.229,0.352-0.394c0.086-0.165,0.131-0.377,0.131-0.635
		c0-0.505-0.143-0.866-0.428-1.082s-0.66-0.324-1.131-0.324h-2.359v2.703H523.222L523.222,309.436z M523.374,301.271
		c0.469,0,0.897,0.041,1.282,0.124c0.386,0.083,0.717,0.219,0.994,0.407c0.275,0.188,0.488,0.438,0.642,0.751
		c0.149,0.313,0.227,0.699,0.227,1.159c0,0.497-0.112,0.909-0.338,1.24c-0.225,0.332-0.56,0.604-1.001,0.815
		c0.606,0.174,1.061,0.48,1.359,0.917c0.3,0.437,0.449,0.963,0.449,1.579c0,0.495-0.099,0.927-0.291,1.289
		c-0.192,0.365-0.453,0.66-0.779,0.89c-0.326,0.23-0.698,0.399-1.116,0.51c-0.419,0.11-0.849,0.166-1.29,0.166h-4.771v-9.848
		H523.374L523.374,301.271z M523.098,305.257c0.387,0,0.705-0.091,0.951-0.276c0.247-0.184,0.373-0.482,0.373-0.896
		c0-0.229-0.042-0.417-0.126-0.565c-0.081-0.147-0.191-0.262-0.33-0.345c-0.138-0.082-0.295-0.14-0.476-0.172
		c-0.177-0.033-0.364-0.049-0.556-0.049h-2.03v2.304H523.098L523.098,305.257z M510.091,301.271l4.108,6.606h0.028v-6.606h2.028
		v9.848h-2.165l-4.099-6.593h-0.026v6.593h-2.025v-9.848H510.091L510.091,301.271z M502.824,301.271c0.44,0,0.839,0.07,1.192,0.214
		c0.355,0.143,0.656,0.337,0.91,0.586c0.251,0.249,0.447,0.536,0.577,0.862c0.135,0.326,0.2,0.678,0.2,1.055
		c0,0.58-0.121,1.08-0.364,1.503s-0.641,0.745-1.192,0.967v0.027c0.268,0.073,0.487,0.187,0.662,0.338
		c0.175,0.152,0.315,0.33,0.429,0.538c0.108,0.206,0.19,0.435,0.24,0.683c0.049,0.248,0.085,0.495,0.103,0.744
		c0.01,0.156,0.02,0.341,0.028,0.553c0.01,0.211,0.025,0.427,0.047,0.647c0.023,0.222,0.061,0.432,0.114,0.627
		c0.048,0.198,0.125,0.365,0.225,0.504h-2.164c-0.122-0.313-0.194-0.685-0.222-1.115c-0.028-0.434-0.068-0.848-0.125-1.244
		c-0.073-0.514-0.229-0.891-0.469-1.13c-0.238-0.239-0.63-0.358-1.174-0.358h-2.163v3.848h-2.167v-9.848H502.824L502.824,301.271z
		 M502.051,305.726c0.497,0,0.868-0.11,1.118-0.331c0.248-0.22,0.372-0.58,0.372-1.075c0-0.479-0.124-0.826-0.372-1.042
		c-0.25-0.216-0.621-0.324-1.118-0.324h-2.372v2.772H502.051L502.051,305.726z M494.171,310.367
		c-0.746,0.647-1.773,0.973-3.089,0.973c-1.334,0-2.366-0.322-3.098-0.965c-0.729-0.646-1.096-1.639-1.096-2.981v-6.123h2.166v6.123
		c0,0.267,0.022,0.53,0.069,0.787c0.045,0.258,0.141,0.485,0.288,0.683c0.148,0.198,0.352,0.357,0.615,0.482
		c0.261,0.124,0.613,0.187,1.055,0.187c0.773,0,1.305-0.173,1.599-0.518c0.297-0.345,0.443-0.885,0.443-1.621v-6.123h2.163v6.123
		C495.287,308.728,494.917,309.719,494.171,310.367 M493.44,300.168h-1.862v-1.614h1.862V300.168L493.44,300.168z M490.601,300.168
		h-1.866v-1.614h1.866V300.168L490.601,300.168z M478.354,301.271l4.109,6.606h0.029v-6.606h2.028v9.848h-2.167l-4.097-6.593h-0.026
		v6.593h-2.027v-9.848H478.354L478.354,301.271z M473.712,308.194h-4.151v-1.682h4.151V308.194L473.712,308.194z M460.94,301.271
		l4.109,6.606h0.028v-6.606h2.025v9.848h-2.163l-4.098-6.593h-0.027v6.593h-2.027v-9.848H460.94L460.94,301.271z M456.527,301.271
		v1.821h-5.199v2.109h4.774v1.684h-4.774v2.413h5.311v1.82h-7.474v-9.848H456.527L456.527,301.271z M444.156,311.044
		c-0.466,0.196-0.942,0.296-1.42,0.296c-0.756,0-1.433-0.131-2.035-0.394c-0.601-0.263-1.11-0.623-1.523-1.083
		c-0.414-0.459-0.73-1-0.952-1.621c-0.219-0.621-0.33-1.29-0.33-2.007c0-0.734,0.111-1.418,0.33-2.048
		c0.222-0.63,0.538-1.179,0.952-1.647c0.413-0.47,0.923-0.838,1.523-1.104c0.603-0.266,1.279-0.398,2.035-0.398
		c0.506,0,0.996,0.074,1.47,0.227c0.473,0.152,0.901,0.375,1.282,0.669s0.696,0.657,0.946,1.089c0.245,0.433,0.398,0.93,0.454,1.491
		h-2.068c-0.13-0.554-0.379-0.966-0.746-1.243c-0.367-0.275-0.815-0.413-1.338-0.413c-0.487,0-0.901,0.094-1.244,0.283
		c-0.34,0.188-0.613,0.441-0.825,0.758c-0.211,0.318-0.365,0.679-0.461,1.083c-0.099,0.405-0.146,0.823-0.146,1.255
		c0,0.414,0.047,0.816,0.146,1.207c0.096,0.392,0.25,0.742,0.461,1.057c0.212,0.312,0.485,0.563,0.825,0.751
		c0.343,0.188,0.757,0.282,1.244,0.282c0.717,0,1.271-0.182,1.662-0.545c0.391-0.362,0.62-0.89,0.683-1.579H442.9v-1.613h4.138
		v5.323h-1.378l-0.22-1.115C445.052,310.498,444.627,310.846,444.156,311.044 M429.923,301.271l4.11,6.606h0.027v-6.606h2.027v9.848
		h-2.165l-4.099-6.593h-0.026v6.593h-2.025v-9.848H429.923L429.923,301.271z M422.861,301.271l3.683,9.848h-2.247l-0.746-2.192
		h-3.683l-0.773,2.192h-2.179l3.724-9.848H422.861L422.861,301.271z M422.984,307.312l-1.242-3.613h-0.026l-1.281,3.613H422.984
		L422.984,307.312z M411.22,301.271v8.027h4.801v1.82h-6.966v-9.848H411.22L411.22,301.271z M404.215,301.271
		c0.442,0,0.84,0.07,1.193,0.214c0.354,0.143,0.658,0.337,0.911,0.586c0.253,0.249,0.446,0.536,0.579,0.862
		c0.133,0.326,0.2,0.678,0.2,1.055c0,0.58-0.121,1.08-0.365,1.503c-0.244,0.423-0.642,0.745-1.193,0.967v0.027
		c0.266,0.073,0.487,0.187,0.662,0.338c0.175,0.152,0.317,0.33,0.427,0.538c0.11,0.206,0.19,0.435,0.242,0.683
		c0.051,0.248,0.085,0.495,0.104,0.744c0.008,0.156,0.018,0.341,0.027,0.553c0.008,0.211,0.024,0.427,0.048,0.647
		c0.023,0.222,0.06,0.432,0.109,0.627c0.052,0.198,0.127,0.365,0.23,0.504h-2.167c-0.12-0.313-0.193-0.685-0.221-1.115
		c-0.028-0.434-0.068-0.848-0.124-1.244c-0.074-0.514-0.229-0.891-0.47-1.13c-0.237-0.239-0.629-0.358-1.171-0.358h-2.165v3.848
		h-2.165v-9.848H404.215L404.215,301.271z M403.443,305.726c0.496,0,0.87-0.11,1.117-0.331c0.248-0.22,0.373-0.58,0.373-1.075
		c0-0.479-0.125-0.826-0.373-1.042c-0.247-0.216-0.621-0.324-1.117-0.324h-2.372v2.772H403.443L403.443,305.726z M396.784,301.271
		v1.821h-5.2v2.109h4.772v1.684h-4.772v2.413h5.311v1.82h-7.476v-9.848H396.784L396.784,301.271z"/>
	<path fill="#083A64" d="M475.885,288.195v-1.82h8.069v1.82h-2.952v8.027h-2.164v-8.027H475.885L475.885,288.195z M472.409,286.375
		l3.685,9.848h-2.25l-0.743-2.194h-3.685l-0.772,2.194h-2.179l3.726-9.848H472.409L472.409,286.375z M472.533,292.415l-1.24-3.613
		h-0.026l-1.283,3.613H472.533L472.533,292.415z M473.623,285.271h-1.863v-1.614h1.863V285.271L473.623,285.271z M470.781,285.271
		h-1.861v-1.614h1.861V285.271L470.781,285.271z M458.547,288.195v-1.82h8.069v1.82h-2.948v8.027H461.5v-8.027H458.547
		L458.547,288.195z M456.811,296.223h-2.164v-9.848h2.164V296.223L456.811,296.223z M446.742,293.795
		c0.119,0.229,0.279,0.417,0.477,0.559c0.197,0.143,0.429,0.249,0.694,0.317c0.267,0.068,0.544,0.104,0.829,0.104
		c0.193,0,0.401-0.017,0.621-0.049c0.221-0.032,0.427-0.095,0.619-0.186c0.193-0.093,0.355-0.22,0.482-0.38
		c0.131-0.161,0.193-0.365,0.193-0.613c0-0.268-0.084-0.483-0.254-0.648c-0.17-0.166-0.393-0.304-0.669-0.414
		s-0.588-0.207-0.938-0.29c-0.35-0.082-0.701-0.175-1.062-0.275c-0.367-0.092-0.726-0.204-1.076-0.337
		c-0.35-0.135-0.662-0.307-0.938-0.52c-0.275-0.21-0.495-0.474-0.668-0.792c-0.17-0.317-0.256-0.701-0.256-1.151
		c0-0.505,0.107-0.944,0.324-1.317c0.217-0.372,0.499-0.684,0.848-0.932c0.349-0.247,0.746-0.432,1.188-0.551
		c0.439-0.12,0.881-0.179,1.323-0.179c0.515,0,1.009,0.057,1.483,0.172c0.474,0.115,0.894,0.301,1.263,0.558
		c0.368,0.258,0.659,0.588,0.877,0.986c0.214,0.4,0.323,0.885,0.323,1.456h-2.099c-0.018-0.294-0.08-0.539-0.184-0.73
		c-0.108-0.194-0.246-0.346-0.423-0.455c-0.174-0.111-0.373-0.189-0.6-0.234c-0.224-0.047-0.472-0.07-0.738-0.07
		c-0.174,0-0.349,0.02-0.523,0.056c-0.173,0.037-0.334,0.102-0.477,0.193c-0.143,0.091-0.259,0.206-0.35,0.345
		c-0.093,0.138-0.137,0.313-0.137,0.523c0,0.193,0.033,0.351,0.107,0.47s0.219,0.229,0.437,0.33
		c0.213,0.103,0.513,0.202,0.896,0.305c0.379,0.1,0.881,0.229,1.496,0.385c0.185,0.038,0.438,0.104,0.766,0.201
		c0.324,0.096,0.648,0.251,0.973,0.462c0.321,0.211,0.6,0.495,0.834,0.849c0.234,0.354,0.352,0.806,0.352,1.358
		c0,0.451-0.088,0.869-0.262,1.255c-0.176,0.387-0.435,0.72-0.781,1c-0.343,0.281-0.771,0.499-1.28,0.655
		c-0.511,0.155-1.103,0.233-1.773,0.233c-0.544,0-1.069-0.066-1.578-0.2c-0.512-0.133-0.962-0.342-1.352-0.627
		c-0.392-0.284-0.701-0.647-0.933-1.089c-0.229-0.441-0.34-0.965-0.33-1.573h2.098C446.564,293.283,446.622,293.564,446.742,293.795
		 M440.038,286.375c0.443,0,0.841,0.07,1.194,0.214c0.354,0.142,0.656,0.337,0.911,0.585c0.252,0.249,0.444,0.536,0.579,0.862
		c0.133,0.326,0.197,0.679,0.197,1.055c0,0.58-0.121,1.081-0.362,1.504c-0.246,0.423-0.643,0.746-1.194,0.966v0.027
		c0.266,0.073,0.489,0.187,0.661,0.338c0.176,0.151,0.317,0.331,0.428,0.538c0.112,0.206,0.191,0.435,0.241,0.683
		c0.051,0.249,0.085,0.497,0.104,0.745c0.011,0.157,0.02,0.34,0.027,0.551c0.01,0.212,0.026,0.428,0.05,0.648
		c0.022,0.222,0.061,0.431,0.109,0.628c0.05,0.198,0.125,0.366,0.228,0.504h-2.164c-0.119-0.313-0.193-0.686-0.223-1.117
		c-0.027-0.432-0.068-0.847-0.123-1.242c-0.076-0.515-0.23-0.892-0.469-1.131c-0.24-0.239-0.629-0.358-1.173-0.358h-2.166v3.849
		h-2.164v-9.848H440.038L440.038,286.375z M439.269,290.829c0.493,0,0.868-0.109,1.114-0.33c0.25-0.221,0.373-0.58,0.373-1.076
		c0-0.479-0.123-0.825-0.373-1.041c-0.246-0.216-0.621-0.324-1.114-0.324h-2.375v2.771H439.269L439.269,290.829z M432.608,286.375
		v1.82h-5.2v2.11h4.774v1.682h-4.774v2.414h5.311v1.821h-7.476v-9.848H432.608L432.608,286.375z M417.932,296.223l-3.185-9.848h2.22
		l2.194,6.924h0.028l2.219-6.924h2.237l-3.272,9.848H417.932L417.932,296.223z M413.183,296.223h-2.167v-9.848h2.167V296.223
		L413.183,296.223z M402.44,286.375l4.11,6.606h0.027v-6.606h2.027v9.848h-2.164l-4.097-6.593h-0.028v6.593h-2.027v-9.848H402.44
		L402.44,286.375z M396.729,295.471c-0.746,0.647-1.774,0.972-3.091,0.972c-1.332,0-2.364-0.322-3.095-0.965
		c-0.729-0.644-1.097-1.637-1.097-2.979v-6.123h2.167v6.123c0,0.267,0.02,0.529,0.069,0.785c0.045,0.259,0.141,0.486,0.287,0.685
		c0.147,0.197,0.353,0.357,0.616,0.481c0.261,0.124,0.612,0.187,1.053,0.187c0.773,0,1.307-0.172,1.603-0.518
		c0.293-0.344,0.441-0.885,0.441-1.62v-6.123h2.165v6.123C397.847,293.832,397.473,294.822,396.729,295.471"/>
	<path fill="#083A64" d="M560.371,271.295c0.442,0,0.839,0.071,1.194,0.213c0.352,0.144,0.656,0.338,0.907,0.586
		c0.255,0.249,0.446,0.536,0.579,0.863c0.134,0.326,0.201,0.678,0.201,1.054c0,0.58-0.122,1.081-0.366,1.504
		c-0.242,0.423-0.641,0.745-1.191,0.967v0.026c0.267,0.074,0.487,0.187,0.661,0.338c0.175,0.152,0.317,0.331,0.429,0.538
		c0.109,0.207,0.19,0.436,0.24,0.684c0.051,0.248,0.086,0.495,0.103,0.743c0.011,0.157,0.019,0.342,0.028,0.552
		c0.01,0.213,0.024,0.429,0.049,0.648c0.022,0.222,0.059,0.431,0.11,0.628s0.126,0.365,0.228,0.504h-2.167
		c-0.118-0.313-0.191-0.685-0.22-1.117c-0.027-0.433-0.068-0.846-0.123-1.242c-0.074-0.514-0.231-0.892-0.468-1.13
		c-0.241-0.239-0.633-0.359-1.174-0.359h-2.164v3.849h-2.167v-9.848H560.371L560.371,271.295z M559.598,275.75
		c0.497,0,0.869-0.111,1.118-0.331c0.248-0.222,0.372-0.579,0.372-1.076c0-0.478-0.124-0.825-0.372-1.041
		c-0.249-0.217-0.621-0.325-1.118-0.325h-2.37v2.773H559.598L559.598,275.75z M553.009,271.295v1.82h-5.199v2.109h4.771v1.684
		h-4.771v2.414h5.31v1.82h-7.475v-9.848H553.009L553.009,271.295z M539.395,271.295c0.635,0,1.227,0.101,1.773,0.303
		c0.547,0.203,1.022,0.505,1.421,0.91c0.401,0.405,0.712,0.911,0.938,1.519c0.224,0.605,0.334,1.318,0.334,2.137
		c0,0.717-0.09,1.38-0.273,1.986c-0.186,0.607-0.46,1.131-0.834,1.572c-0.372,0.441-0.837,0.789-1.395,1.041
		c-0.556,0.253-1.211,0.38-1.965,0.38h-4.248v-9.848H539.395L539.395,271.295z M539.244,279.322c0.312,0,0.615-0.052,0.91-0.152
		s0.557-0.268,0.786-0.503c0.229-0.234,0.414-0.54,0.552-0.917s0.207-0.837,0.207-1.379c0-0.498-0.049-0.945-0.146-1.346
		c-0.098-0.399-0.255-0.741-0.476-1.027s-0.513-0.503-0.877-0.655c-0.361-0.151-0.811-0.228-1.345-0.228h-1.541v6.207H539.244
		L539.244,279.322z M526.665,271.295l4.11,6.606h0.027v-6.606h2.028v9.848h-2.167l-4.096-6.593h-0.028v6.593h-2.027v-9.848H526.665
		L526.665,271.295z M519.543,271.295l3.683,9.848h-2.248l-0.745-2.193h-3.683l-0.772,2.193h-2.179l3.724-9.848H519.543
		L519.543,271.295z M519.669,277.335l-1.243-3.613h-0.027l-1.283,3.613H519.669L519.669,277.335z M503.709,271.295h2.51l1.932,3.145
		l2-3.145h2.373l-3.16,4.703l3.435,5.145h-2.579l-2.15-3.407l-2.192,3.407h-2.429l3.435-5.158L503.709,271.295L503.709,271.295z
		 M502.041,271.295v1.82h-5.201v2.109h4.773v1.684h-4.773v2.414h5.313v1.82h-7.477v-9.848H502.041L502.041,271.295z
		 M488.145,271.295v8.027h4.799v1.82h-6.965v-9.848H488.145L488.145,271.295z M480.801,271.295l3.684,9.848h-2.248l-0.744-2.193
		h-3.685l-0.772,2.193h-2.178l3.723-9.848H480.801L480.801,271.295z M480.926,277.335l-1.24-3.613h-0.029l-1.28,3.613H480.926
		L480.926,277.335z M473.818,278.219h-4.151v-1.683h4.151V278.219L473.818,278.219z M461.06,271.295v3.779h3.983v-3.779h2.167v9.848
		h-2.167v-4.249h-3.983v4.249h-2.168v-9.848H461.06L461.06,271.295z M454.48,273.922c-0.128-0.207-0.29-0.388-0.484-0.545
		c-0.191-0.155-0.411-0.278-0.655-0.365c-0.242-0.087-0.498-0.132-0.763-0.132c-0.488,0-0.901,0.095-1.242,0.284
		c-0.342,0.188-0.617,0.44-0.827,0.758c-0.212,0.318-0.365,0.679-0.464,1.083c-0.096,0.405-0.143,0.823-0.143,1.255
		c0,0.414,0.047,0.815,0.143,1.207c0.099,0.392,0.252,0.742,0.464,1.056c0.21,0.312,0.485,0.563,0.827,0.752
		c0.341,0.188,0.754,0.281,1.242,0.281c0.662,0,1.179-0.202,1.551-0.606c0.374-0.405,0.6-0.938,0.685-1.6h2.095
		c-0.056,0.616-0.197,1.173-0.428,1.668c-0.229,0.497-0.535,0.92-0.91,1.27c-0.379,0.349-0.819,0.616-1.324,0.8
		c-0.506,0.184-1.062,0.276-1.668,0.276c-0.754,0-1.434-0.131-2.035-0.393c-0.603-0.263-1.11-0.623-1.523-1.083
		c-0.414-0.459-0.732-1.001-0.953-1.621c-0.222-0.621-0.33-1.29-0.33-2.007c0-0.735,0.108-1.418,0.33-2.049
		c0.221-0.629,0.539-1.178,0.953-1.648c0.413-0.469,0.921-0.836,1.523-1.103c0.602-0.267,1.281-0.399,2.035-0.399
		c0.539,0,1.055,0.077,1.537,0.234c0.481,0.156,0.914,0.384,1.295,0.683c0.382,0.298,0.697,0.67,0.947,1.11
		c0.246,0.441,0.403,0.946,0.467,1.517h-2.096C454.691,274.357,454.609,274.129,454.48,273.922 M445.835,281.143h-2.165v-9.848
		h2.165V281.143L445.835,281.143z M438.605,271.295c0.438,0,0.836,0.071,1.192,0.213c0.353,0.144,0.655,0.338,0.91,0.586
		c0.251,0.249,0.446,0.536,0.579,0.863c0.134,0.326,0.199,0.678,0.199,1.054c0,0.58-0.123,1.081-0.365,1.504
		c-0.243,0.423-0.641,0.745-1.193,0.967v0.026c0.266,0.074,0.488,0.187,0.663,0.338c0.173,0.152,0.315,0.331,0.429,0.538
		c0.108,0.207,0.19,0.436,0.239,0.684c0.051,0.248,0.085,0.495,0.103,0.743c0.01,0.157,0.02,0.342,0.027,0.552
		c0.012,0.213,0.028,0.429,0.05,0.648c0.022,0.222,0.06,0.431,0.111,0.628c0.049,0.197,0.125,0.365,0.226,0.504h-2.164
		c-0.121-0.313-0.195-0.685-0.22-1.117c-0.03-0.433-0.069-0.846-0.126-1.242c-0.074-0.514-0.23-0.892-0.469-1.13
		c-0.24-0.239-0.63-0.359-1.172-0.359h-2.165v3.849h-2.165v-9.848H438.605L438.605,271.295z M437.832,275.75
		c0.494,0,0.869-0.111,1.115-0.331c0.25-0.222,0.375-0.579,0.375-1.076c0-0.478-0.125-0.825-0.375-1.041
		c-0.246-0.217-0.621-0.325-1.115-0.325h-2.372v2.773H437.832L437.832,275.75z M427.066,271.295c0.635,0,1.228,0.101,1.774,0.303
		c0.547,0.203,1.021,0.505,1.419,0.91c0.4,0.405,0.714,0.911,0.938,1.519c0.227,0.605,0.338,1.318,0.338,2.137
		c0,0.717-0.09,1.38-0.273,1.986c-0.186,0.607-0.463,1.131-0.835,1.572s-0.837,0.789-1.394,1.041
		c-0.556,0.253-1.211,0.38-1.967,0.38h-4.246v-9.848H427.066L427.066,271.295z M426.918,279.322c0.311,0,0.613-0.052,0.908-0.152
		s0.557-0.268,0.787-0.503c0.229-0.234,0.414-0.54,0.552-0.917c0.137-0.377,0.206-0.837,0.206-1.379
		c0-0.498-0.049-0.945-0.144-1.346c-0.099-0.399-0.256-0.741-0.477-1.027c-0.222-0.286-0.513-0.503-0.876-0.655
		c-0.362-0.151-0.812-0.228-1.346-0.228h-1.545v6.207H426.918L426.918,279.322z M420.699,271.295v1.82H415.5v2.109h4.771v1.684
		H415.5v2.414h5.308v1.82h-7.474v-9.848H420.699L420.699,271.295z M410.852,281.143h-2.167v-9.848h2.167V281.143L410.852,281.143z
		 M403.413,271.295c0.442,0,0.839,0.071,1.192,0.213c0.354,0.144,0.659,0.338,0.912,0.586c0.252,0.249,0.444,0.536,0.577,0.863
		c0.135,0.326,0.201,0.678,0.201,1.054c0,0.58-0.122,1.081-0.364,1.504c-0.246,0.423-0.643,0.745-1.195,0.967v0.026
		c0.266,0.074,0.488,0.187,0.664,0.338c0.173,0.152,0.318,0.331,0.427,0.538c0.108,0.207,0.189,0.436,0.242,0.684
		c0.05,0.248,0.083,0.495,0.102,0.743c0.01,0.157,0.02,0.342,0.028,0.552c0.008,0.213,0.024,0.429,0.048,0.648
		c0.022,0.222,0.059,0.431,0.111,0.628c0.049,0.197,0.126,0.365,0.227,0.504h-2.165c-0.12-0.313-0.194-0.685-0.221-1.117
		c-0.028-0.433-0.069-0.846-0.125-1.242c-0.074-0.514-0.23-0.892-0.469-1.13c-0.239-0.239-0.628-0.359-1.171-0.359h-2.166v3.849
		h-2.166v-9.848H403.413L403.413,271.295z M402.64,275.75c0.495,0,0.869-0.111,1.118-0.331c0.248-0.222,0.372-0.579,0.372-1.076
		c0-0.478-0.124-0.825-0.372-1.041c-0.249-0.217-0.623-0.325-1.118-0.325h-2.372v2.773H402.64L402.64,275.75z M396.343,271.295v1.82
		h-4.759v2.275h4.125v1.683h-4.125v4.069h-2.165v-9.848H396.343L396.343,271.295z"/>
	<path fill="#083A64" d="M367.842,306.45h-41.065c2.523,2.061,5.442,3.604,8.536,4.679h23.971
		C362.386,310.055,365.313,308.511,367.842,306.45"/>
	<polygon fill="#083A64" points="254.792,304.105 272.59,304.105 272.618,304.02 272.569,304.02 274.043,299.428 256.563,299.428 
		254.792,304.105 	"/>
	<polygon fill="#083A64" points="253.978,306.45 252.203,311.129 270.337,311.129 271.881,306.45 253.978,306.45 	"/>
	<polygon fill="#083A64" points="215.989,311.129 232.983,311.129 232.983,306.45 215.989,306.45 215.989,311.129 	"/>
	<polygon fill="#083A64" points="232.983,299.428 215.989,299.428 215.989,304.106 232.983,304.106 232.983,299.428 	"/>
	<polygon fill="#083A64" points="232.983,292.41 215.989,292.41 215.989,297.088 232.983,297.088 232.983,292.41 	"/>
	<polygon fill="#083A64" points="232.983,285.396 215.989,285.396 215.989,290.073 232.983,290.073 232.983,285.396 	"/>
	<polygon fill="#083A64" points="232.983,264.332 215.989,264.332 215.989,269.009 232.983,269.009 232.983,264.332 	"/>
	<polygon fill="#083A64" points="232.983,257.303 215.989,257.303 215.989,261.981 232.983,261.981 232.983,257.303 	"/>
	<polygon fill="#083A64" points="215.989,247.947 267.927,247.947 267.927,243.27 215.989,243.27 215.989,247.947 	"/>
	<polygon fill="#083A64" points="215.989,254.964 267.927,254.964 267.927,250.286 215.989,250.286 215.989,254.964 	"/>
	<polygon fill="#083A64" points="284.83,264.332 269.504,264.332 267.731,269.01 283.391,269.01 284.83,264.332 	"/>
	<polygon fill="#083A64" points="275.495,247.947 296.649,247.947 294.835,243.27 277.268,243.27 275.495,247.947 	"/>
	<polygon fill="#083A64" points="272.908,254.964 299.296,254.964 297.482,250.286 274.681,250.286 272.908,254.964 	"/>
	<polygon fill="#083A64" points="286.996,261.994 301.945,261.994 300.129,257.315 272.093,257.315 270.318,261.994 
		285.489,261.994 286.147,259.849 286.338,259.849 286.996,261.994 	"/>
	<polygon fill="#083A64" points="289.095,269.01 304.59,269.01 302.777,264.333 287.659,264.333 289.095,269.01 	"/>
	<polygon fill="#8D1429" points="291.191,276.019 307.237,276.019 305.424,271.341 289.755,271.341 291.191,276.019 	"/>
	<polygon fill="#8D1429" points="293.288,283.034 309.886,283.034 308.071,278.356 291.852,278.356 293.288,283.034 	"/>
	<polygon fill="#083A64" points="259.967,290.072 312.533,290.072 310.718,285.395 261.741,285.395 259.967,290.072 	"/>
	<polygon fill="#083A64" points="257.379,297.088 315.178,297.088 313.364,292.41 259.152,292.41 257.379,297.088 	"/>
	<polygon fill="#083A64" points="300.042,304.105 317.829,304.105 316.013,299.428 298.476,299.428 300.042,304.105 	"/>
	<polygon fill="#083A64" points="300.7,306.45 302.244,311.129 320.473,311.129 318.659,306.45 300.7,306.45 	"/>
	<polygon fill="#083A64" points="318.528,247.947 335.521,247.947 335.521,243.27 318.528,243.27 318.528,247.947 	"/>
	<polygon fill="#083A64" points="318.528,254.964 335.521,254.964 335.521,250.286 318.528,250.286 318.528,254.964 	"/>
	<polygon fill="#083A64" points="318.528,261.994 335.521,261.994 335.521,257.316 318.528,257.316 318.528,261.994 	"/>
	<polygon fill="#083A64" points="318.528,269.01 335.521,269.01 335.521,264.333 318.528,264.333 318.528,269.01 	"/>
	<polygon fill="#8D1429" points="318.528,276.017 335.521,276.017 335.521,271.34 318.528,271.34 318.528,276.017 	"/>
	<polygon fill="#8D1429" points="318.528,283.034 335.521,283.034 335.521,278.356 318.528,278.356 318.528,283.034 	"/>
	<path fill="#083A64" d="M318.665,290.072h17.176c-0.216-1.211-0.32-2.505-0.32-3.867v-0.811h-16.992v2.205
		C318.529,288.458,318.596,289.266,318.665,290.072"/>
	<path fill="#083A64" d="M320.184,297.088h19.381c-1.508-1.177-2.534-2.774-3.176-4.678h-17.445
		C319.222,294.078,319.625,295.65,320.184,297.088"/>
	<path fill="#083A64" d="M373.479,299.428h-52.332c0.912,1.748,2.038,3.299,3.318,4.678h45.697
		C371.44,302.727,372.571,301.176,373.479,299.428"/>
	<path fill="#083A64" d="M375.686,292.411h-17.449c-0.643,1.901-1.678,3.501-3.194,4.678h19.4
		C375.003,295.649,375.405,294.08,375.686,292.411"/>
	<polygon fill="#083A64" points="359.106,247.947 376.101,247.947 376.101,243.27 359.106,243.27 359.106,247.947 	"/>
	<polygon fill="#083A64" points="359.106,254.964 376.101,254.964 376.101,250.286 359.106,250.286 359.106,254.964 	"/>
	<polygon fill="#083A64" points="359.106,261.994 376.101,261.994 376.101,257.316 359.106,257.316 359.106,261.994 	"/>
	<polygon fill="#083A64" points="359.106,269.01 376.101,269.01 376.101,264.333 359.106,264.333 359.106,269.01 	"/>
	<polygon fill="#8D1429" points="359.106,276.017 376.101,276.017 376.101,271.34 359.106,271.34 359.106,276.017 	"/>
	<polygon fill="#8D1429" points="359.106,283.034 376.101,283.034 376.101,278.356 359.106,278.356 359.106,283.034 	"/>
	<path fill="#083A64" d="M376.101,287.599v-2.203h-16.996v0.81c0,1.362-0.102,2.656-0.318,3.867h17.175
		C376.031,289.265,376.101,288.458,376.101,287.599"/>
	<polygon fill="#8D1429" points="215.989,278.355 215.989,283.033 279.198,283.033 280.636,278.355 215.989,278.355 	"/>
	<polygon fill="#8D1429" points="215.989,271.341 215.989,276.018 281.295,276.018 282.731,271.341 215.989,271.341 	"/>
</g>
</svg>
